<?xml version="1.0" standalone="no"?><!DOCTYPE svg PUBLIC "-//W3C//DTD SVG 1.1//EN" "http://www.w3.org/Graphics/SVG/1.1/DTD/svg11.dtd"><svg t="1528946304511" class="icon" style="" viewBox="0 0 1024 1024" version="1.1" xmlns="http://www.w3.org/2000/svg" p-id="5481" xmlns:xlink="http://www.w3.org/1999/xlink" width="200" height="200"><defs><style type="text/css"></style></defs><path d="M732.330667 2.218667H291.669333c-66.048 0-119.296 53.248-119.296 117.077333v785.578667c0 66.048 53.248 117.077333 119.296 117.077333h440.661334c66.048 0 119.296-53.248 119.296-117.077333V119.296c2.048-64-53.248-117.077333-119.296-117.077333zM472.576 40.448h80.896c10.581333 0 19.114667 8.533333 19.114667 19.114667 0 10.581333-8.533333 19.114667-19.114667 19.114666h-80.896c-10.581333 0-19.114667-8.533333-19.114667-19.114666-2.218667-8.533333 6.314667-19.114667 19.114667-19.114667z m40.448 934.570667c-27.648 0-51.029333-23.381333-51.029333-51.029334s23.381333-51.029333 51.029333-51.029333 51.029333 23.381333 51.029333 51.029333c0 29.696-23.381333 51.029333-51.029333 51.029334z m259.754667-168.106667c0 10.581333-8.533333 19.114667-19.114667 19.114667H272.554667c-10.581333 0-19.114667-8.533333-19.114667-19.114667V138.410667c0-10.581333 8.533333-19.114667 19.114667-19.114667h481.109333c10.581333 0 19.114667 8.533333 19.114667 19.114667v668.501333z m0 0" fill="#919191" p-id="5482"></path></svg>