<?xml version="1.0" standalone="no"?><!DOCTYPE svg PUBLIC "-//W3C//DTD SVG 1.1//EN" "http://www.w3.org/Graphics/SVG/1.1/DTD/svg11.dtd"><svg t="1527752204746" class="icon" style="" viewBox="0 0 1024 1024" version="1.1" xmlns="http://www.w3.org/2000/svg" p-id="5837" xmlns:xlink="http://www.w3.org/1999/xlink" width="200" height="200"><defs><style type="text/css"></style></defs><path d="M640 0C426.496 0 256 143.36 256 320c0.512 58.368 18.944 115.712 53.76 162.816L256 576h154.624c69.12 42.496 148.48 64.512 229.376 64 213.504 0 384-143.36 384-320S853.504 0 640 0z" fill="#2382EA" p-id="5838"></path><path d="M448 656.384v207.872c0 17.92-14.336 31.744-31.744 31.744H96.256c-17.92 0-31.744-14.336-31.744-31.744V287.744c0-17.92 14.336-31.744 31.744-31.744H199.68c4.608-22.016 11.264-43.52 20.48-64H64C28.672 192 0 220.672 0 256v704c0 35.328 28.672 64 64 64h384c35.328 0 64-28.672 64-64v-283.136c-22.016-5.632-43.008-12.288-64-20.48zM256 992.256c-17.92 0-31.744-14.336-31.744-31.744s14.336-31.744 31.744-31.744c17.92 0 31.744 14.336 31.744 31.744s-13.824 31.744-31.744 31.744z" fill="#2382EA" p-id="5839"></path><path d="M804.864 528.896V468.992h29.696v59.904h-29.696z m-90.112-90.112v-29.696h-29.696v119.808H655.36V349.184h89.6v59.904h59.904V349.184h29.696v89.6H714.752z m-59.904-299.008H834.56v179.712h-179.712V139.776z m30.208 149.504h119.808V169.472h-119.808v119.808z m29.696-89.6h59.904v59.904h-59.904V199.68zM445.44 349.184h179.712v179.712H445.44V349.184z m29.696 149.504h119.808V378.88H475.136v119.808z m30.208-89.6h59.904v59.904H505.344V409.088zM445.44 139.776h179.712v179.712H445.44V139.776z m29.696 149.504h119.808V169.472H475.136v119.808zM505.344 199.68h59.904v59.904H505.344V199.68z m269.312 329.216h-29.696V468.992h29.696v59.904z" fill="#FFFFFF" p-id="5840"></path></svg>