<?xml version="1.0" standalone="no"?><!DOCTYPE svg PUBLIC "-//W3C//DTD SVG 1.1//EN" "http://www.w3.org/Graphics/SVG/1.1/DTD/svg11.dtd"><svg t="1528185854914" class="icon" style="" viewBox="0 0 1024 1024" version="1.1" xmlns="http://www.w3.org/2000/svg" p-id="3193" xmlns:xlink="http://www.w3.org/1999/xlink" width="200" height="200"><defs><style type="text/css"></style></defs><path d="M199.68 556.373333h267.946667v44.373334h88.746666v-44.373334h267.946667v88.746667h44.373333V512H556.373333v-44.373333h-88.746666V512H155.306667v133.12h44.373333v-88.746667z m0 0M512 735.573333c-73.386667 0-133.12 59.733333-133.12 133.12s59.733333 133.12 133.12 133.12 133.12-59.733333 133.12-133.12-59.733333-133.12-133.12-133.12z m0 221.866667c-49.493333 0-88.746667-39.253333-88.746667-88.746667 0-49.493333 39.253333-88.746667 88.746667-88.746666 49.493333 0 88.746667 39.253333 88.746667 88.746666 0 49.493333-39.253333 88.746667-88.746667 88.746667z m0 0M868.693333 735.573333c-73.386667 0-133.12 59.733333-133.12 133.12s59.733333 133.12 133.12 133.12 133.12-59.733333 133.12-133.12-59.733333-133.12-133.12-133.12z m0 221.866667c-49.493333 0-88.746667-39.253333-88.746666-88.746667 0-49.493333 39.253333-88.746667 88.746666-88.746666 49.493333 0 88.746667 39.253333 88.746667 88.746666 0 49.493333-39.253333 88.746667-88.746667 88.746667z m0 0M155.306667 735.573333c-73.386667 0-133.12 59.733333-133.12 133.12s59.733333 133.12 133.12 133.12 133.12-59.733333 133.12-133.12-59.733333-133.12-133.12-133.12z m0 221.866667c-49.493333 0-88.746667-39.253333-88.746667-88.746667 0-49.493333 39.253333-88.746667 88.746667-88.746666 49.493333 0 88.746667 39.253333 88.746666 88.746666 0 49.493333-39.253333 88.746667-88.746666 88.746667z m0 0M512 378.88c98.986667 0 177.493333-80.213333 177.493333-177.493333C689.493333 102.4 610.986667 22.186667 512 22.186667c-98.986667 0-177.493333 80.213333-177.493333 177.493333 0 98.986667 78.506667 179.2 177.493333 179.2z m0-312.32c73.386667 0 133.12 59.733333 133.12 133.12s-59.733333 133.12-133.12 133.12-133.12-59.733333-133.12-133.12 59.733333-133.12 133.12-133.12z m0 0" fill="#666666" p-id="3194"></path></svg>