<?xml version="1.0" standalone="no"?><!DOCTYPE svg PUBLIC "-//W3C//DTD SVG 1.1//EN" "http://www.w3.org/Graphics/SVG/1.1/DTD/svg11.dtd"><svg t="1527750792443" class="icon" style="" viewBox="0 0 1024 1024" version="1.1" xmlns="http://www.w3.org/2000/svg" p-id="3096" xmlns:xlink="http://www.w3.org/1999/xlink" width="200" height="200"><defs><style type="text/css"></style></defs><path d="M413.988571 917.211429h-1.024c-40.374857-0.292571-84.406857-16.969143-130.925714-49.590858-46.811429-32.914286-78.994286-69.339429-95.817143-108.251428-21.796571-50.614857-15.945143-101.961143 16.822857-148.626286l122.002286-173.348571c40.667429-57.782857 90.258286-70.070857 124.928-70.070857h1.024c40.374857 0.292571 84.406857 16.969143 130.925714 49.590857 19.894857 13.897143 24.576 41.252571 10.678858 61.147428-13.897143 19.748571-41.252571 24.576-61.147429 10.678857-90.404571-63.634286-120.246857-21.211429-134.582857-0.731428L274.870857 661.357714c-15.067429 21.504-17.554286 40.96-8.045714 63.341715 10.093714 23.405714 32.768 48.128 65.682286 71.241142 86.162286 60.708571 117.321143 24.722286 132.534857 3.657143l17.408-36.132571c10.532571-21.796571 36.717714-31.012571 58.514285-20.48 21.796571 10.532571 31.012571 36.717714 20.48 58.514286l-19.017142 39.497142c-1.024 2.194286-2.194286 4.242286-3.657143 6.290286-40.521143 57.636571-90.112 69.924571-124.781715 69.924572z" p-id="3097"></path><path d="M571.099429 694.125714h-1.024c-40.374857-0.292571-84.406857-16.969143-130.925715-49.590857-19.894857-13.897143-24.576-41.252571-10.678857-61.147428 13.897143-19.894857 41.252571-24.576 61.147429-10.678858 90.404571 63.634286 120.246857 21.211429 134.582857 0.731429l122.002286-173.348571c15.067429-21.504 17.554286-40.96 8.045714-63.341715-10.093714-23.405714-32.768-48.128-65.682286-71.241143-86.601143-60.854857-117.613714-24.576-132.681143-3.510857l-17.993143 36.132572c-10.825143 21.650286-37.156571 30.573714-58.806857 19.748571-21.650286-10.825143-30.573714-37.156571-19.748571-58.806857l19.456-39.204571c1.024-2.048 2.194286-3.949714 3.364571-5.705143 40.667429-57.782857 90.112-70.217143 124.928-70.217143h1.024c40.374857 0.292571 84.406857 16.969143 130.925715 49.590857 46.811429 32.914286 79.140571 69.339429 95.817142 108.251429 21.796571 50.614857 15.945143 101.961143-16.822857 148.626285l-122.002285 173.348572c-40.813714 58.075429-90.258286 70.363429-124.928 70.363428z" p-id="3098"></path></svg>