<?xml version="1.0" standalone="no"?><!DOCTYPE svg PUBLIC "-//W3C//DTD SVG 1.1//EN" "http://www.w3.org/Graphics/SVG/1.1/DTD/svg11.dtd"><svg t="1527751937299" class="icon" style="" viewBox="0 0 1024 1024" version="1.1" xmlns="http://www.w3.org/2000/svg" p-id="4316" xmlns:xlink="http://www.w3.org/1999/xlink" width="200" height="200"><defs><style type="text/css"></style></defs><path d="M768 947.7688889c-10.24 0-22.18666667-3.41333333-32.42666667-8.53333334l-221.86666666-110.93333334-223.57333334 110.93333334c-22.18666667 11.94666667-51.2 10.24-71.68-5.12-20.48-15.36-32.42666667-42.66666667-27.30666666-68.26666666l46.08-238.93333334L61.44 463.07555556C42.66666667 444.30222222 35.84 415.2888889 42.66666667 391.39555556c8.53333333-25.6 29.01333333-44.37333333 56.32-47.78666666l244.05333333-44.37333334 109.22666667-221.86666666c11.94666667-23.89333333 35.84-39.25333333 61.44-39.25333334s51.2 15.36 61.44 39.25333334l109.22666666 221.86666666 244.05333334 42.66666666c25.6 3.41333333 47.78666667 22.18666667 54.61333333 47.78666668 8.53333333 25.6 1.70666667 52.90666667-17.06666667 71.68L790.18666667 626.91555556l44.37333333 238.93333334c5.12 27.30666667-6.82666667 52.90666667-27.30666667 68.26666666-10.24 8.53333333-23.89333333 13.65333333-39.25333333 13.65333334z" fill="#707070" p-id="4317"></path></svg>