<?xml version="1.0" standalone="no"?><!DOCTYPE svg PUBLIC "-//W3C//DTD SVG 1.1//EN" "http://www.w3.org/Graphics/SVG/1.1/DTD/svg11.dtd"><svg t="1528356520291" class="icon" style="" viewBox="0 0 1024 1024" version="1.1" xmlns="http://www.w3.org/2000/svg" p-id="3365" xmlns:xlink="http://www.w3.org/1999/xlink" width="200" height="200"><defs><style type="text/css"></style></defs><path d="M1015.637333 439.978667c0 65.194667-22.528 125.44-67.413333 180.736-44.885333 55.296-105.984 98.986667-183.296 130.901333-77.141333 32.085333-161.450667 48.128-252.928 48.128-26.282667 0-53.418667-1.536-81.578667-4.437333-74.24 65.536-160.426667 110.933333-258.56 136.021333-18.432 5.290667-39.765333 9.386667-64 12.458667-6.314667 0.682667-12.117333-1.024-17.237333-5.12s-8.362667-9.557333-9.898667-16.384v-0.682667c-1.194667-1.536-1.194667-3.754667-0.341333-6.656 0.853333-2.901333 1.365333-4.778667 1.194667-5.632-0.170667-0.853333 0.682667-2.56 2.56-5.290667l3.413333-5.12 3.925333-4.778666c2.56-3.242667 4.096-4.949333 4.437334-5.12 2.56-3.072 8.362667-9.386667 17.408-19.456 9.045333-9.898667 15.530667-17.066667 19.456-21.333334 3.925333-4.266667 9.728-11.776 17.408-22.186666 7.68-10.410667 13.824-19.968 18.261333-28.672 4.437333-8.704 9.557333-19.626667 15.189333-33.109334 5.632-13.482667 10.410667-27.648 14.677334-42.666666-58.88-33.28-105.130667-74.581333-139.093334-123.562667-33.962667-48.981333-50.858667-101.717333-50.858666-158.037333 0-48.64 13.312-95.232 39.936-139.605334 26.624-44.373333 62.293333-82.773333 107.349333-114.858666 44.885333-32.256 98.474667-57.856 160.768-76.8C378.538667 89.6 443.733333 80.213333 512 80.213333c91.477333 0 175.786667 16.042667 252.928 48.128 77.141333 32.085333 138.24 75.776 183.296 130.901334 44.885333 55.296 67.413333 115.541333 67.413333 180.736z m0 0" fill="#9B9B9B" p-id="3366"></path></svg>