<?xml version="1.0" standalone="no"?><!DOCTYPE svg PUBLIC "-//W3C//DTD SVG 1.1//EN" "http://www.w3.org/Graphics/SVG/1.1/DTD/svg11.dtd"><svg t="1528185848531" class="icon" style="" viewBox="0 0 1024 1024" version="1.1" xmlns="http://www.w3.org/2000/svg" p-id="2946" xmlns:xlink="http://www.w3.org/1999/xlink" width="200" height="200"><defs><style type="text/css"></style></defs><path d="M998.4 921.6h-49.493333V419.84c0-46.08-37.546667-83.626667-83.626667-83.626667H638.293333V150.186667c0-46.08-37.546667-83.626667-83.626666-83.626667H122.88c-46.08 0-83.626667 37.546667-83.626667 83.626667V921.6h-13.653333c-10.24 0-17.066667 8.533333-17.066667 17.066667 0 10.24 8.533333 17.066667 17.066667 17.066666h974.506667c10.24 0 17.066667-8.533333 17.066666-17.066666s-8.533333-17.066667-18.773333-17.066667zM73.386667 921.6V150.186667C73.386667 124.586667 95.573333 102.4 122.88 102.4h431.786667c27.306667 0 49.493333 22.186667 49.493333 49.493333V921.6H73.386667z m564.906666 0V370.346667h228.693334c27.306667 0 49.493333 22.186667 49.493333 49.493333V921.6H638.293333z m0 0" fill="#666666" p-id="2947"></path><path d="M162.133333 319.146667h121.173334c10.24 0 17.066667-8.533333 17.066666-17.066667 0-10.24-8.533333-17.066667-17.066666-17.066667H162.133333c-10.24 0-17.066667 8.533333-17.066666 17.066667s8.533333 17.066667 17.066666 17.066667z m0 209.92h121.173334c10.24 0 17.066667-8.533333 17.066666-17.066667 0-10.24-8.533333-17.066667-17.066666-17.066667H162.133333c-10.24 0-17.066667 8.533333-17.066666 17.066667 0 10.24 8.533333 17.066667 17.066666 17.066667z m233.813334-209.92h121.173333c10.24 0 17.066667-8.533333 17.066667-17.066667 0-10.24-8.533333-17.066667-17.066667-17.066667h-121.173333c-10.24 0-17.066667 8.533333-17.066667 17.066667-1.706667 8.533333 6.826667 17.066667 17.066667 17.066667z m0 209.92h121.173333c10.24 0 17.066667-8.533333 17.066667-17.066667 0-10.24-8.533333-17.066667-17.066667-17.066667h-121.173333c-10.24 0-17.066667 8.533333-17.066667 17.066667-1.706667 10.24 6.826667 17.066667 17.066667 17.066667zM162.133333 738.986667h121.173334c10.24 0 17.066667-8.533333 17.066666-17.066667 0-10.24-8.533333-17.066667-17.066666-17.066667H162.133333c-10.24 0-17.066667 8.533333-17.066666 17.066667 0 10.24 8.533333 17.066667 17.066666 17.066667z m233.813334 0h121.173333c10.24 0 17.066667-8.533333 17.066667-17.066667 0-10.24-8.533333-17.066667-17.066667-17.066667h-121.173333c-10.24 0-17.066667 8.533333-17.066667 17.066667-1.706667 10.24 6.826667 17.066667 17.066667 17.066667z m310.613333-179.2h121.173333c10.24 0 17.066667-8.533333 17.066667-17.066667 0-10.24-8.533333-17.066667-17.066667-17.066667h-121.173333c-10.24 0-17.066667 8.533333-17.066667 17.066667s8.533333 17.066667 17.066667 17.066667z m0 209.92h121.173333c10.24 0 17.066667-8.533333 17.066667-17.066667s-8.533333-17.066667-17.066667-17.066667h-121.173333c-10.24 0-17.066667 8.533333-17.066667 17.066667s8.533333 17.066667 17.066667 17.066667z m0 0" fill="#666666" p-id="2948"></path></svg>