<?xml version="1.0" standalone="no"?><!DOCTYPE svg PUBLIC "-//W3C//DTD SVG 1.1//EN" "http://www.w3.org/Graphics/SVG/1.1/DTD/svg11.dtd"><svg t="1527751762504" class="icon" style="" viewBox="0 0 1024 1024" version="1.1" xmlns="http://www.w3.org/2000/svg" p-id="3441" xmlns:xlink="http://www.w3.org/1999/xlink" width="200" height="200"><defs><style type="text/css"></style></defs><path d="M542.8 959.8h-61.5c-33.5 0-60.7-27.2-60.7-60.7V841c-26.7-7.4-52.3-18-76.3-31.6l-41.1 41.1c-23.7 23.7-62.2 23.7-85.8 0L173.8 807c-11.5-11.5-17.8-26.7-17.8-42.9s6.3-31.5 17.8-42.9l41.1-41.1c-13.6-24-24.2-49.6-31.6-76.3h-58.2c-33.5 0-60.7-27.2-60.7-60.7v-61.5c0-33.5 27.2-60.7 60.7-60.7h58.2c7.4-26.7 18-52.3 31.6-76.3l-41.1-41.1C162.4 292 156 276.8 156 260.6s6.3-31.5 17.8-42.9l43.5-43.5c11.5-11.5 26.7-17.8 42.9-17.8s31.5 6.3 42.9 17.8l41.1 41.1c24-13.6 49.6-24.2 76.3-31.6v-58.2c0-33.5 27.2-60.7 60.7-60.7h61.5c33.5 0 60.7 27.2 60.7 60.7v58.2c26.7 7.4 52.3 18 76.3 31.6l41.1-41.1c11.5-11.5 26.7-17.8 42.9-17.8s31.5 6.3 42.9 17.8l43.5 43.5c23.7 23.7 23.7 62.2 0 85.8L809 344.6c13.6 24 24.2 49.6 31.6 76.3h58.2c33.5 0 60.7 27.2 60.7 60.7v61.5c0 33.5-27.2 60.7-60.7 60.7h-58.2c-7.4 26.7-18 52.3-31.6 76.3l41.1 41.1c23.7 23.7 23.7 62.2 0 85.8l-43.5 43.5c-11.5 11.5-26.7 17.8-42.9 17.8s-31.5-6.3-42.9-17.8l-41.1-41.1c-24 13.6-49.6 24.2-76.3 31.6v58.2c0.1 33.4-27.2 60.6-60.6 60.6zM341.9 776.1c2.7 0 5.3 0.7 7.7 2.2 27.6 16.9 57.6 29.3 89.2 36.9 6.6 1.6 11.3 7.5 11.3 14.4v69.6c0 17.2 14 31.2 31.2 31.2h61.5c17.2 0 31.2-14 31.2-31.2v-69.6c0-6.8 4.7-12.8 11.3-14.4 31.6-7.6 61.6-20 89.2-36.9 5.8-3.6 13.3-2.7 18.2 2.2l49.2 49.2c11.8 11.8 32.3 11.8 44.1 0l43.5-43.5c12.1-12.1 12.1-31.9 0-44.1l-49.2-49.2c-4.8-4.8-5.7-12.3-2.2-18.2 16.9-27.6 29.3-57.6 36.9-89.2 1.6-6.6 7.5-11.3 14.4-11.3H899c17.2 0 31.2-14 31.2-31.2v-61.5c0-17.2-14-31.2-31.2-31.2h-69.6c-6.8 0-12.8-4.7-14.4-11.3-7.6-31.6-20-61.6-36.9-89.2-3.6-5.8-2.7-13.3 2.2-18.2l49.2-49.2c12.1-12.1 12.1-31.9 0-44.1L785.8 195c-11.8-11.8-32.3-11.8-44.1 0l-49.2 49.2c-4.8 4.8-12.3 5.7-18.2 2.2-27.6-16.9-57.6-29.3-89.2-36.9-6.6-1.6-11.3-7.5-11.3-14.4v-69.6c0-17.2-14-31.2-31.2-31.2h-61.5c-17.2 0-31.2 14-31.2 31.2v69.6c0 6.8-4.7 12.8-11.3 14.4-31.6 7.6-61.6 20-89.2 36.9-5.8 3.6-13.3 2.7-18.2-2.2L282.3 195c-11.8-11.8-32.3-11.8-44.1 0l-43.5 43.5c-5.9 5.9-9.1 13.7-9.1 22s3.2 16.1 9.1 22l49.2 49.2c4.8 4.8 5.7 12.3 2.2 18.2-16.9 27.6-29.3 57.6-36.9 89.2-1.6 6.6-7.5 11.3-14.4 11.3h-69.6c-17.2 0-31.2 14-31.2 31.2v61.5c0 17.2 14 31.2 31.2 31.2h69.6c6.8 0 12.8 4.7 14.4 11.3 7.6 31.6 20 61.6 36.9 89.2 3.6 5.8 2.7 13.3-2.2 18.2l-49.2 49.2c-5.9 5.9-9.1 13.7-9.1 22s3.2 16.1 9.1 22l43.5 43.5c12.1 12.1 31.9 12.2 44.1 0l49.2-49.2c2.8-2.9 6.6-4.4 10.4-4.4z" p-id="3442"></path><path d="M512 661.4c-82.2 0-149.1-66.9-149.1-149.1s66.9-149 149.1-149 149.1 66.9 149.1 149.1-66.9 149-149.1 149z m0-268.6c-65.9 0-119.5 53.6-119.5 119.5S446.1 631.8 512 631.8s119.5-53.6 119.5-119.5S577.9 392.8 512 392.8z" p-id="3443"></path></svg>