<?xml version="1.0" standalone="no"?><!DOCTYPE svg PUBLIC "-//W3C//DTD SVG 1.1//EN" "http://www.w3.org/Graphics/SVG/1.1/DTD/svg11.dtd"><svg t="1527751791813" class="icon" style="" viewBox="0 0 1024 1024" version="1.1" xmlns="http://www.w3.org/2000/svg" p-id="3550" xmlns:xlink="http://www.w3.org/1999/xlink" width="200" height="200"><defs><style type="text/css"></style></defs><path d="M512 992C246.896 992 32 777.104 32 512 32 246.896 246.896 32 512 32c265.104 0 480 214.896 480 480 0 265.104-214.896 480-480 480z m216.832-696.832c-12.128-12.128-31.808-12.128-43.936 0l-172 172-172.032-172.032c-12.08-12.08-31.664-12.08-43.744 0-12.064 12.08-12.064 31.664 0 43.744l172.048 172.032L297.104 682.96c-12.128 12.128-12.128 31.792 0 43.936 12.144 12.128 31.808 12.128 43.936 0l172.048-172.064L683.2 724.944c12.08 12.064 31.648 12.064 43.728 0 12.08-12.08 12.08-31.664 0-43.744L556.832 511.104l172-172c12.128-12.128 12.128-31.808 0-43.936z" p-id="3551"></path></svg>