<?xml version="1.0" standalone="no"?><!DOCTYPE svg PUBLIC "-//W3C//DTD SVG 1.1//EN" "http://www.w3.org/Graphics/SVG/1.1/DTD/svg11.dtd"><svg t="1527823781150" class="icon" style="" viewBox="0 0 1056 1024" version="1.1" xmlns="http://www.w3.org/2000/svg" p-id="2097" xmlns:xlink="http://www.w3.org/1999/xlink" width="206.25" height="200"><defs><style type="text/css"></style></defs><path d="M1036.045796 485.89004l-42.664878 253.756175c-9.426211 47.624911-53.680017 82.302202-105.041056 82.302202l-606.197694 5.99069a12.51818 12.51818 0 0 1-12.883204-12.153156V395.814972a12.389348 12.389348 0 0 1 12.7329-12.024324h11.916964c59.541875 0 114.724932-19.324806 155.521744-54.345649a184.444538 184.444538 0 0 0 65.317845-141.715244V18.637702a4.852674 4.852674 0 0 1 4.874145-4.723842c94.326525 0 171.196309 72.382135 171.19631 161.533907v191.358524a17.64999 17.64999 0 0 0 18.165318 17.177605h237.33009a93.167037 93.167037 0 0 1 70.277878 31.13441 82.81753 82.81753 0 0 1 19.453638 70.857622z m0 0" fill="#C0E4FF" p-id="2098"></path><path d="M1028.251457 420.099811a121.98247 121.98247 0 0 0-94.090333-44.210862h-209.867394V199.02403A199.045502 199.045502 0 0 0 525.505892 0.236192a39.508492 39.508492 0 0 0-39.48702 39.508492v171.776054c0 93.746781-76.053848 164.475571-176.864919 164.475571h-11.44458a46.358062 46.358062 0 0 0-19.818662 4.294402 45.198574 45.198574 0 0 0-37.618956-20.162214H45.091214a45.241518 45.241518 0 0 0-45.091214 45.091214v572.207506a45.241518 45.241518 0 0 0 45.091214 45.091215h195.395261a45.091214 45.091214 0 0 0 40.453261-24.993416 45.842734 45.842734 0 0 0 17.177605 3.177857h552.453261A137.420843 137.420843 0 0 0 985.457748 888.941078l69.096918-368.330803a122.884294 122.884294 0 0 0-26.303209-100.510464z m-777.286643 557.456238h-0.128832a10.521283 10.521283 0 0 1-10.499811 10.499812H45.091214a10.521283 10.521283 0 0 1-10.499811-10.499812V405.348543A10.521283 10.521283 0 0 1 45.091214 394.870203h125.289159v334.727113a17.392325 17.392325 0 0 0 34.784651 0V395.084923H240.486475a10.521283 10.521283 0 0 1 10.499811 10.499812z m769.277585-463.258544L951.209897 882.64978A102.464416 102.464416 0 0 1 850.44177 966.240302H297.945565a12.367876 12.367876 0 0 1-12.367876-12.389348V422.998532a12.131684 12.131684 0 0 1 12.131684-12.153156H309.196897c57.072594 0 110.00109-19.560998 149.037198-55.290417 40.324429-36.781547 62.48354-88.035228 62.48354-143.862445v-171.776054a4.723841 4.723841 0 0 1 4.723841-4.723841 164.196435 164.196435 0 0 1 164.003187 164.003187v194.300189a17.349381 17.349381 0 0 0 17.32791 17.327909H934.032292a87.906395 87.906395 0 0 1 86.295995 103.645377z" fill="#2382EA" p-id="2099"></path><path d="M187.815643 786.77727a17.521157 17.521157 0 0 0-17.32791 17.692933v37.726316a17.327909 17.327909 0 1 0 34.655819 0v-37.726316a17.499685 17.499685 0 0 0-17.327909-17.692933z" fill="#2382EA" p-id="2100"></path></svg>