<?xml version="1.0" standalone="no"?><!DOCTYPE svg PUBLIC "-//W3C//DTD SVG 1.1//EN" "http://www.w3.org/Graphics/SVG/1.1/DTD/svg11.dtd"><svg t="1527823772344" class="icon" style="" viewBox="0 0 1024 1024" version="1.1" xmlns="http://www.w3.org/2000/svg" p-id="1834" xmlns:xlink="http://www.w3.org/1999/xlink" width="200" height="200"><defs><style type="text/css"></style></defs><path d="M867.415427 920.431563l-158.14548 9.91734-197.282876 73.487111V616.907753l170.570653-82.739496 184.857703-20.556632z m0 0M706.135156 265.222148c-3.45777 55.495308-89.047076 154.402729-174.256409 150.697975-133.675108-5.699621-178.949096-10.107328-173.02149-143.801434S478.150321 29.048859 611.502451 40.505097C692.285077 47.306644 711.834776 174.066212 706.135156 265.222148z m0 0" fill="#C0E4FF" p-id="1835"></path><path d="M510.714155 1023.860682a23.74842 23.74842 0 0 1-15.065997-4.939671l-1.177922-0.930938-1.34891-0.664956c-114.144407-57.1292-227.034897-87.755162-335.53668-91.022945a14.591029 14.591029 0 0 1-3.0018-0.417972c-14.230053-3.932738-24.50837-15.692956-24.50837-28.004137v-143.307467l-16.300916 2.54583a7.333512 7.333512 0 0 1-1.025931 0.113993H95.401782A6.725553 6.725553 0 0 1 88.67623 750.525865v-78.084806a6.725553 6.725553 0 0 1 6.725552-6.725552h17.383844a7.466503 7.466503 0 0 1 1.025932 0.113992l16.300915 2.545831v-149.482057a20.89861 20.89861 0 0 1 8.188456-16.566897 23.767419 23.767419 0 0 1 14.648025-4.692688 30.018003 30.018003 0 0 1 5.395641 0.493967l1.291915 0.227985h5.395641c118.666106 0 232.981502 31.27192 339.754399 92.960816l7.067529 4.084728 7.06753-4.06573c107.000882-61.688896 221.316278-92.960816 339.792397-92.960816h5.300647l1.215919-0.208986a31.347915 31.347915 0 0 1 5.281649-0.455969 25.116329 25.116329 0 0 1 15.198989 4.787681 20.423641 20.423641 0 0 1 7.979469 16.414908v149.12108l16.053932-2.203853a7.105527 7.105527 0 0 1 0.91194 0H928.420369a6.725553 6.725553 0 0 1 6.725552 6.725553V750.525865a6.725553 6.725553 0 0 1-6.725552 6.725553h-17.877811a7.029532 7.029532 0 0 1-0.911939 0l-16.053932-2.203854v142.832499c0 12.311181-10.22132 24.0524-24.299384 27.947141a10.06933 10.06933 0 0 1-2.773815 0.474968c-108.577777 3.267783-221.563261 33.893745-335.954652 91.022945l-1.386908 0.702953-1.19692 0.968936a23.520435 23.520435 0 0 1-15.046999 4.996667h-2.241851z m-353.376493-124.992685l13.432107 0.664956c108.672771 5.319646 221.297279 36.819551 334.738733 93.606773l6.326579 3.172789 6.326579-3.172789c113.441454-56.787222 226.08496-88.268128 334.738733-93.606773l13.432106-0.664956V525.466836l-14.268051 0.132991c-115.15134 1.139924-225.951969 33.095798-329.36209 94.993681a14.021067 14.021067 0 0 1-2.830812 1.234918l-1.177922 0.322979-1.082927 0.512965a13.299115 13.299115 0 0 1-11.551232 0l-1.101927-0.531964-1.177921-0.322979a14.819014 14.819014 0 0 1-3.115793-1.405906c-103.144139-61.764891-213.887772-93.663769-329.039112-94.803694l-14.268051-0.132991zM685.502528 483.118653a18.200789 18.200789 0 0 1-8.777416-2.260849L580.743497 425.210505l-4.046731 1.215919a217.060561 217.060561 0 0 1-132.459189-2.678821l-4.04673-1.386908-97.976483 52.968476a17.991803 17.991803 0 1 1-17.573831-31.385912l75.994945-40.296319-12.767151-9.17639A217.630523 217.630523 0 1 1 635.839832 398.441286l-12.78615 8.606428 71.074272 42.291186a18.124794 18.124794 0 0 1 8.815414 10.98127 17.497836 17.497836 0 0 1-1.595894 13.451105 18.067798 18.067798 0 0 1-15.844946 9.347378zM512.842014 28.782876a189.322406 189.322406 0 1 0 174.617384 262.790519 187.726512 187.726512 0 0 0-36.971541-203.419468 189.987362 189.987362 0 0 0-137.645843-59.371051z" fill="#2382EA" p-id="1836"></path></svg>