<?xml version="1.0" standalone="no"?><!DOCTYPE svg PUBLIC "-//W3C//DTD SVG 1.1//EN" "http://www.w3.org/Graphics/SVG/1.1/DTD/svg11.dtd"><svg t="1527920697036" class="icon" style="" viewBox="0 0 1024 1024" version="1.1" xmlns="http://www.w3.org/2000/svg" p-id="2799" xmlns:xlink="http://www.w3.org/1999/xlink" width="200" height="200"><defs><style type="text/css"></style></defs><path d="M604.16 866.986667c-6.826667 6.826667-13.653333 15.36-20.48 22.186666-15.36 15.36-30.72 30.72-46.08 44.373334-10.24 10.24-23.893333 15.36-37.546667 17.066666-3.413333 0-8.533333-1.706667-11.946666-1.706666-15.36-3.413333-27.306667-13.653333-37.546667-23.893334L378.88 853.333333c-10.24-10.24-20.48-22.186667-32.426667-32.426666-11.946667-11.946667-23.893333-25.6-35.84-37.546667-22.186667-22.186667-42.666667-44.373333-64.853333-66.56-20.48-22.186667-40.96-42.666667-61.44-64.853333-22.186667-23.893333-46.08-47.786667-68.266667-71.68-11.946667-11.946667-23.893333-23.893333-35.84-37.546667-6.826667-8.533333-11.946667-18.773333-18.773333-29.013333-5.12-6.826667-8.533333-13.653333-11.946667-22.186667-3.413333-5.12-5.12-10.24-8.533333-15.36-1.706667-10.24-6.826667-20.48-10.24-32.426667-3.413333-8.533333-6.826667-17.066667-8.533333-27.306666-3.413333-15.36-5.12-30.72-5.12-46.08 0-20.48 0-39.253333 1.706666-59.733334 1.706667-17.066667 5.12-35.84 11.946667-52.906666 5.12-11.946667 8.533333-23.893333 13.653333-34.133334 5.12-10.24 10.24-20.48 17.066667-30.72 8.533333-13.653333 17.066667-27.306667 27.306667-39.253333 10.24-10.24 20.48-20.48 30.72-29.013333 8.533333-6.826667 17.066667-11.946667 25.6-18.773334 10.24-5.12 18.773333-10.24 29.013333-15.36 11.946667-5.12 23.893333-10.24 37.546667-13.653333 20.48-5.12 40.96-8.533333 61.44-6.826667 8.533333 0 18.773333 0 27.306666 1.706667 17.066667 3.413333 35.84 5.12 52.906667 11.946667 13.653333 6.826667 29.013333 10.24 42.666667 18.773333 15.36 8.533333 29.013333 17.066667 40.96 27.306667 17.066667 13.653333 32.426667 29.013333 49.493333 44.373333 1.706667 1.706667 3.413333 5.12 6.826667 6.826667 3.413333 3.413333 5.12 3.413333 8.533333 0 10.24-10.24 20.48-22.186667 30.72-30.72 11.946667-10.24 23.893333-20.48 37.546667-29.013334l30.72-20.48c8.533333-5.12 17.066667-8.533333 25.6-11.946666 13.653333-5.12 25.6-10.24 39.253333-13.653334 3.413333-1.706667 6.826667-1.706667 8.533333-1.706666 3.413333 0 6.826667 0 8.533334-1.706667 22.186667-6.826667 44.373333-5.12 68.266666-3.413333 11.946667 0 25.6 5.12 37.546667 8.533333 8.533333 1.706667 17.066667 5.12 23.893333 6.826667 5.12 1.706667 8.533333 3.413333 13.653334 5.12 15.36 8.533333 32.426667 17.066667 46.08 29.013333 17.066667 13.653333 32.426667 29.013333 46.08 46.08 8.533333 11.946667 15.36 23.893333 23.893333 35.84 5.12 8.533333 10.24 18.773333 13.653333 27.306667 3.413333 6.826667 5.12 11.946667 6.826667 18.773333 3.413333 8.533333 5.12 17.066667 8.533333 25.6 0 1.706667 1.706667 3.413333 1.706667 3.413333 1.706667 13.653333 5.12 27.306667 6.826667 40.96 1.706667 6.826667 0 15.36 1.706666 22.186667 0 3.413333-1.706667 5.12-5.12 5.12h-34.133333c-3.413333 0-5.12-1.706667-5.12-6.826667 0-11.946667 0-23.893333-1.706667-35.84-1.706667-10.24-5.12-18.773333-6.826666-29.013333-1.706667-8.533333-5.12-17.066667-8.533334-25.6-1.706667-5.12-3.413333-10.24-6.826666-13.653333-10.24-18.773333-20.48-39.253333-35.84-54.613334-15.36-17.066667-32.426667-34.133333-54.613334-46.08-10.24-5.12-22.186667-10.24-32.426666-15.36-29.013333-11.946667-59.733333-10.24-90.453334-8.533333-11.946667 0-23.893333 5.12-35.84 8.533333-5.12 1.706667-11.946667 3.413333-17.066666 5.12-13.653333 5.12-27.306667 11.946667-39.253334 20.48-13.653333 10.24-29.013333 20.48-42.666666 32.426667-20.48 18.773333-40.96 39.253333-56.32 61.44-1.706667 3.413333-5.12 6.826667-8.533334 10.24-3.413333 5.12-5.12 3.413333-8.533333 0-13.653333-17.066667-27.306667-35.84-42.666667-52.906667-17.066667-18.773333-37.546667-35.84-59.733333-49.493333-11.946667-6.826667-22.186667-13.653333-34.133333-18.773333-5.12-3.413333-11.946667-5.12-18.773334-6.826667-10.24-3.413333-20.48-6.826667-32.426666-8.533333-6.826667-1.706667-15.36-1.706667-22.186667-1.706667-13.653333 0-27.306667-1.706667-40.96 0-11.946667 1.706667-22.186667 5.12-34.133333 8.533333-6.826667 1.706667-11.946667 3.413333-17.066667 6.826667-8.533333 13.653333-18.773333 18.773333-29.013333 25.6-11.946667 8.533333-23.893333 18.773333-34.133334 29.013333-13.653333 13.653333-23.893333 29.013333-34.133333 44.373334-6.826667 11.946667-11.946667 25.6-17.066667 39.253333-3.413333 6.826667-6.826667 15.36-8.533333 22.186667-3.413333 11.946667-5.12 23.893333-6.826667 34.133333-1.706667 8.533333-1.706667 18.773333-1.706666 27.306667 0 17.066667 1.706667 32.426667 3.413333 49.493333 1.706667 8.533333 5.12 17.066667 6.826667 27.306667 1.706667 6.826667 3.413333 11.946667 6.826666 17.066666 5.12 11.946667 10.24 22.186667 15.36 34.133334 5.12 10.24 10.24 22.186667 17.066667 32.426666 6.826667 8.533333 13.653333 17.066667 22.186667 25.6 13.653333 13.653333 25.6 27.306667 39.253333 40.96 23.893333 25.6 49.493333 49.493333 73.386667 75.093334 11.946667 11.946667 23.893333 23.893333 35.84 37.546666 23.893333 25.6 47.786667 49.493333 71.68 75.093334 10.24 10.24 20.48 20.48 30.72 32.426666 17.066667 17.066667 34.133333 35.84 49.493333 52.906667 17.066667 17.066667 32.426667 34.133333 49.493333 51.2 5.12 5.12 10.24 8.533333 15.36 11.946667 1.706667 1.706667 5.12 1.706667 6.826667 0 15.36-13.653333 29.013333-27.306667 42.666667-40.96 8.533333-6.826667 15.36-15.36 22.186666-23.893334 1.706667-1.706667 5.12-1.706667 6.826667 0 11.946667 5.12 20.48 15.36 30.72 23.893334z m0 0" fill="#2382EA" p-id="2800"></path><path d="M711.68 634.88h-78.506667c-1.706667 0-3.413333-1.706667-3.413333-3.413333v-34.133334c0-1.706667 3.413333-3.413333 5.12-3.413333h155.306667c5.12 0 8.533333-1.706667 8.533333-8.533333v-10.24-138.24c0-11.946667 0-11.946667 11.946667-11.946667h23.893333c5.12 0 5.12 1.706667 5.12 5.12V585.386667c0 3.413333 3.413333 6.826667 6.826667 6.826666h155.306666c3.413333 0 5.12 1.706667 5.12 5.12v32.426667c0 3.413333-1.706667 5.12-5.12 5.12h-151.893333c-8.533333 0-11.946667 1.706667-11.946667 11.946667v150.186666c0 8.533333 0 8.533333-8.533333 8.533334h-25.6c-6.826667 0-8.533333-1.706667-8.533333-6.826667v-146.773333-8.533334c0-6.826667-3.413333-8.533333-8.533334-8.533333h-75.093333z m0 0" fill="#2382EA" p-id="2801"></path></svg>