<?xml version="1.0" standalone="no"?><!DOCTYPE svg PUBLIC "-//W3C//DTD SVG 1.1//EN" "http://www.w3.org/Graphics/SVG/1.1/DTD/svg11.dtd"><svg t="1527847302171" class="icon" style="" viewBox="0 0 1024 1024" version="1.1" xmlns="http://www.w3.org/2000/svg" p-id="2234" xmlns:xlink="http://www.w3.org/1999/xlink" width="200" height="200"><defs><style type="text/css"></style></defs><path d="M520.66666667 70.66666667C272.26666667 70.66666667 70.66666667 272.26666667 70.66666667 520.66666667S272.26666667 970.66666667 520.66666667 970.66666667c248.4 0 450-201.6 450-450S769.06666667 70.66666667 520.66666667 70.66666667zM722.26666667 721.66666667c-12 12-31.2 12-42.6 0L518.86666667 559.66666667l-163.2 161.4c-12 12-31.2 12-43.2 0-12-12-12-31.2 0-42.6l163.8-162L321.46666667 361.66666667c-12-12-12-31.2 0-42.6 12-12 31.2-12 42.6 0l154.8 155.4 157.2-155.4c12-12 31.2-12 43.2 0 12 12 12 31.2 0 42.6l-157.8 156 160.2 161.4C733.66666667 690.46666667 733.66666667 709.66666667 722.26666667 721.66666667z" p-id="2235"></path></svg>