<?xml version="1.0" standalone="no"?><!DOCTYPE svg PUBLIC "-//W3C//DTD SVG 1.1//EN" "http://www.w3.org/Graphics/SVG/1.1/DTD/svg11.dtd"><svg t="1527750440727" class="icon" style="" viewBox="0 0 1073 1024" version="1.1" xmlns="http://www.w3.org/2000/svg" p-id="1773" xmlns:xlink="http://www.w3.org/1999/xlink" width="209.5703125" height="200"><defs><style type="text/css"></style></defs><path d="M0 943.84648v63.192001A16.961519 16.961519 0 0 0 16.961519 1023.896576h616.613271a16.961519 16.961519 0 0 0 11.997172-28.958691L305.617614 655.190385a16.961519 16.961519 0 0 0-23.994344 0L4.964347 931.849308A16.961519 16.961519 0 0 0 0 943.84648zM930.29795 6.515705L450.514493 486.092314a16.961519 16.961519 0 0 0 0 23.994344l508.742148 508.948995a16.961519 16.961519 0 0 0 11.997172 4.964347h85.221291a16.961519 16.961519 0 0 0 16.961519-16.961519V16.961519A16.961519 16.961519 0 0 0 1056.578527 0H946.018382a22.339562 22.339562 0 0 0-15.720432 6.515705zM0 16.961519v581.242299A16.961519 16.961519 0 0 0 28.958691 610.20099L610.20099 28.958691A16.961519 16.961519 0 0 0 598.203818 0H16.961519A16.961519 16.961519 0 0 0 0 16.961519z" fill="#2c2c2c" p-id="1774"></path></svg>