<?xml version="1.0" encoding="utf-8"?>
<!-- Generator: Adobe Illustrator 21.0.0, SVG Export Plug-In . SVG Version: 6.00 Build 0)  -->
<svg version="1.1" id="图层_1" xmlns="http://www.w3.org/2000/svg" xmlns:xlink="http://www.w3.org/1999/xlink" x="0px" y="0px"
	 viewBox="0 0 148 39" style="enable-background:new 0 0 148 39;" xml:space="preserve">
<style type="text/css">
	.st0{fill:#FFFFFF;}
</style>
<g id="XMLID_28_">
	<g>
		<path id="XMLID_25_" class="st0" d="M0.1,35.9v2.4c0,0.3,0.3,0.6,0.6,0.6h23c0.6,0,0.8-0.7,0.4-1.1L11.5,25.1
			c-0.2-0.2-0.6-0.2-0.9,0L0.3,35.4C0.1,35.5,0.1,35.7,0.1,35.9z"/>
		<path id="XMLID_24_" class="st0" d="M34.8,0.9L16.9,18.8c-0.2,0.2-0.2,0.6,0,0.9l19,19c0.1,0.1,0.3,0.2,0.4,0.2h3.2
			c0.3,0,0.6-0.3,0.6-0.6v-37c0-0.3-0.3-0.6-0.6-0.6h-4.1C35.2,0.6,35,0.7,34.8,0.9z"/>
		<path id="XMLID_23_" class="st0" d="M0.1,1.3V23c0,0.6,0.7,0.8,1.1,0.4L22.9,1.7c0.4-0.4,0.1-1.1-0.4-1.1H0.7
			C0.4,0.6,0.1,0.9,0.1,1.3z"/>
	</g>
</g>
<g>
	<path class="st0" d="M45.7,9.4l20.3-1l0,1.9l-7.4,0.4l0,7.9l8.9,0l0,1.9l-8.9,0l0,11.1l-5.9,0l0-11.1l-8.7,0l0-1.9l8.7,0l0-7.6
		l-7.1,0.4L45.7,9.4z"/>
	<path class="st0" d="M70.3,14L71.8,8l4.9,0l-0.3,1.1l17,0l0,1.9l-17.6,0L75.1,14L70.3,14z M70.7,31.5l2.1-4.6l-1.2,0l0-5.6l4.7,0
		l0-1.1l-5.7,0l0-1.6l5.7,0l0-0.9l4.8,0l0,0.9l5.7,0l0,1.6l-5.7,0l0,1.1l4.7,0l0,3.7c0,1-0.8,1.9-1.9,1.9l-0.2,0l0,2.8l2.7,0l0,1.9
		l-7.5,0l0-4.6l-1.4,0l-2.1,4.6L70.7,31.5z M93.5,31.5l-6.1,0l0-14.7l-16.1,0l0-1.9l21.3,0l0,14.7l0.9,0L93.5,31.5z M81.4,23l-5.5,0
		l0,2.1l5,0c0.3,0,0.5-0.2,0.5-0.4L81.4,23z M76.2,12l15.8,0l0,1.9l-15.8,0L76.2,12z"/>
	<path class="st0" d="M98.5,9.1l11.1,0l0,16l-2.8,0l2.8,6.4l-4,0l-1.5-3.6l-1.6,3.7l-4.1,0l2.9-6.4l-2.8,0L98.5,9.1z M105.9,23
		l0.4,1l0-13l-4.5,0l0,13.2l0.5-1.2l0-10.9l3.6,0L105.9,23z M121,7.9l0,3.2l0.9,0l0,1.9l-0.9,0l0,16.1c0,1.3-1,2.4-2.2,2.4l-3.2,0
		l0-1.9l0.2,0c0.4,0,0.6-0.3,0.6-0.7l0-15.9l-0.7,0l-1.7,18.5l-4,0l1.7-18.5l-1.3,0l0-1.9l6,0l0-3.2L121,7.9z"/>
	<path class="st0" d="M124.5,29.4l8.8-0.6l0,1.9l-8.8,0.6L124.5,29.4z M133.2,7.9l-1.9,7.3l2.2,0l-2.3,10.2l1.9,0l0,1.9l-8.4,0
		l2.1-8.3l-2.2,0l2.9-11.1L133.2,7.9z M134,19.4l6.9-8.9l-6.4,0l0-2.1l11.9,0l0,2.6l-2.2,2.8l3.8,5.6l-5.3,0l-1.4-2l-1.5,2L134,19.4
		z M134.4,20.5l13.3,0l0,1.9l-3.7,0l0,7.1l4,0l0,1.9l-13.9,0l0-1.9l4,0l0-7.1l-3.7,0L134.4,20.5z"/>
</g>
</svg>
