<?xml version="1.0" standalone="no"?><!DOCTYPE svg PUBLIC "-//W3C//DTD SVG 1.1//EN" "http://www.w3.org/Graphics/SVG/1.1/DTD/svg11.dtd"><svg t="1528289741202" class="icon" style="" viewBox="0 0 1024 1024" version="1.1" xmlns="http://www.w3.org/2000/svg" p-id="5994" xmlns:xlink="http://www.w3.org/1999/xlink" width="200" height="200"><defs><style type="text/css"></style></defs><path d="M473.047381 512V39.253333C473.047381 17.066667 490.114048 0 512.300715 0c22.186667 0 39.253333 17.066667 39.253333 39.253333V512c0 22.186667-17.066667 39.253333-39.253333 39.253333-22.186667 0-39.253333-17.066667-39.253334-39.253333z" fill="" p-id="5995"></path><path d="M932.140715 218.453333c-34.133333-49.493333-76.8-92.16-126.293334-126.293333-18.773333-11.946667-42.666667-6.826667-54.613333 11.946667-10.24 17.066667-6.826667 39.253333 8.533333 52.906666 52.906667 37.546667 68.266667 52.906667 105.813334 105.813334 136.533333 196.266667 88.746667 465.92-105.813334 604.16-148.48 104.106667-348.16 104.106667-496.64 0-40.96-29.013333-76.8-64.853333-105.813333-105.813334-66.56-93.866667-92.16-209.92-71.68-324.266666C106.114048 324.266667 169.260715 223.573333 264.834048 157.013333h1.706667c17.066667-13.653333 20.48-37.546667 6.826666-54.613333-11.946667-15.36-35.84-20.48-52.906666-8.533333-233.813333 160.426667-290.133333 479.573333-128 711.68 34.133333 49.493333 76.8 92.16 126.293333 126.293333 175.786667 122.88 411.306667 122.88 587.093333 0 232.106667-162.133333 288.426667-481.28 126.293334-713.386667z" fill="" p-id="5996"></path></svg>