<?xml version="1.0" standalone="no"?><!DOCTYPE svg PUBLIC "-//W3C//DTD SVG 1.1//EN" "http://www.w3.org/Graphics/SVG/1.1/DTD/svg11.dtd"><svg t="1528185858344" class="icon" style="" viewBox="0 0 1024 1024" version="1.1" xmlns="http://www.w3.org/2000/svg" p-id="3316" xmlns:xlink="http://www.w3.org/1999/xlink" width="200" height="200"><defs><style type="text/css"></style></defs><path d="M918.186667 1005.226667H104.106667c-47.786667 0-85.333333-37.546667-85.333334-85.333334V104.106667c0-47.786667 37.546667-85.333333 85.333334-85.333334h814.08c47.786667 0 85.333333 37.546667 85.333333 85.333334v814.08c0 47.786667-37.546667 87.04-85.333333 87.04zM104.106667 56.32c-27.306667 0-49.493333 22.186667-49.493334 49.493333v814.08c0 27.306667 22.186667 49.493333 49.493334 49.493334h814.08c27.306667 0 49.493333-22.186667 49.493333-49.493334V104.106667c0-27.306667-22.186667-49.493333-49.493333-49.493334l-814.08 1.706667z m0 0" fill="#666666" p-id="3317"></path><path d="M49.493333 158.72h935.253334v35.84H49.493333V158.72z m0 684.373333h935.253334v35.84H49.493333v-35.84z m0 0M435.2 698.026667c-25.6 0-47.786667-22.186667-47.786667-47.786667V373.76c0-17.066667 8.533333-32.426667 23.893334-40.96 15.36-8.533333 32.426667-8.533333 47.786666 0l238.933334 138.24c13.653333 8.533333 23.893333 23.893333 23.893333 40.96s-8.533333 32.426667-23.893333 40.96l-237.226667 136.533333c-8.533333 5.12-17.066667 8.533333-25.6 8.533334z m0-334.506667c-1.706667 0-3.413333 0-6.826667 1.706667s-6.826667 6.826667-6.826666 10.24v274.773333c0 6.826667 5.12 11.946667 11.946666 11.946667 1.706667 0 3.413333 0 6.826667-1.706667l237.226667-136.533333c3.413333-1.706667 6.826667-6.826667 6.826666-10.24 0-5.12-1.706667-8.533333-6.826666-10.24l-237.226667-136.533334c0-3.413333-3.413333-3.413333-5.12-3.413333z m0 0" fill="#666666" p-id="3318"></path></svg>