<?xml version="1.0" standalone="no"?><!DOCTYPE svg PUBLIC "-//W3C//DTD SVG 1.1//EN" "http://www.w3.org/Graphics/SVG/1.1/DTD/svg11.dtd"><svg t="1527750629832" class="icon" style="" viewBox="0 0 1024 1024" version="1.1" xmlns="http://www.w3.org/2000/svg" p-id="2534" xmlns:xlink="http://www.w3.org/1999/xlink" width="200" height="200"><defs><style type="text/css"></style></defs><path d="M635.485091 845.172364l-124.741818 124.741818-124.695273-124.741818H162.909091a93.090909 93.090909 0 0 1-93.090909-93.090909V232.727273a93.090909 93.090909 0 0 1 93.090909-93.090909h695.714909a93.090909 93.090909 0 0 1 93.090909 93.090909v519.354182a93.090909 93.090909 0 0 1-93.090909 93.090909h-223.138909zM279.272727 558.545455a69.818182 69.818182 0 1 0 0-139.636364 69.818182 69.818182 0 0 0 0 139.636364z m215.272728 0a69.818182 69.818182 0 1 0 0-139.636364 69.818182 69.818182 0 0 0 0 139.636364z m215.272727 0a69.818182 69.818182 0 1 0 0-139.636364 69.818182 69.818182 0 0 0 0 139.636364z" p-id="2535"></path></svg>