<?xml version="1.0" standalone="no"?><!DOCTYPE svg PUBLIC "-//W3C//DTD SVG 1.1//EN" "http://www.w3.org/Graphics/SVG/1.1/DTD/svg11.dtd"><svg t="1528185852577" class="icon" style="" viewBox="0 0 1024 1024" version="1.1" xmlns="http://www.w3.org/2000/svg" p-id="3070" xmlns:xlink="http://www.w3.org/1999/xlink" width="200" height="200"><defs><style type="text/css"></style></defs><path d="M370.346667 467.626667h46.08c17.066667 42.666667 59.733333 68.266667 105.813333 66.56 46.08 1.706667 88.746667-23.893333 105.813333-66.56h46.08c-13.653333 61.44-75.093333 110.933333-151.893333 110.933333s-138.24-49.493333-151.893333-110.933333z m296.96 204.8c76.8 59.733333 141.653333 151.893333 141.653333 247.466666 0 25.6-1.706667 52.906667-8.533333 76.8h-46.08c6.826667-23.893333 10.24-51.2 10.24-76.8 1.706667-85.333333-61.44-168.96-131.413334-218.453333v-59.733333c129.706667-58.026667 199.68-199.68 167.253334-339.626667-34.133333-138.24-158.72-237.226667-300.373334-230.4-143.36 6.826667-261.12 112.64-283.306666 252.586667-22.186667 141.653333 59.733333 278.186667 194.56 324.266666v51.2c-69.973333 51.2-134.826667 131.413333-131.413334 218.453334 0 25.6 5.12 54.613333 10.24 78.506666h-44.373333c-6.826667-22.186667-8.533333-51.2-8.533333-76.8-1.706667-92.16 61.44-180.906667 131.413333-240.64-143.36-66.56-221.866667-225.28-191.146667-378.88 32.426667-157.013333 167.253333-269.653333 327.68-273.066666 158.72-5.12 300.373333 104.106667 339.626667 257.706666 37.546667 151.893333-35.84 312.32-177.493333 387.413334z m0 0" fill="#666666" p-id="3071"></path></svg>