<?xml version="1.0" standalone="no"?><!DOCTYPE svg PUBLIC "-//W3C//DTD SVG 1.1//EN" "http://www.w3.org/Graphics/SVG/1.1/DTD/svg11.dtd"><svg t="1527750479661" class="icon" style="" viewBox="0 0 1024 1024" version="1.1" xmlns="http://www.w3.org/2000/svg" p-id="1994" xmlns:xlink="http://www.w3.org/1999/xlink" width="200" height="200"><defs><style type="text/css"></style></defs><path d="M997.76 716.8h-307.2a25.6 25.6 0 0 1 0-51.2h307.2a25.6 25.6 0 0 1 0 51.2z m-563.2-51.2a383.7184 383.7184 0 0 0-382.72 358.4h-51.2a435.2 435.2 0 0 1 298.24-387.5584 332.4416 332.4416 0 1 1 135.68 29.1584z m0-614.4a281.6 281.6 0 1 0 281.6 281.6 281.6 281.6 0 0 0-281.6-281.6z m563.2 819.2h-307.2a25.6 25.6 0 0 1 0-51.2h307.2a25.6 25.6 0 0 1 0 51.2z m-307.2 102.4h307.2a25.6 25.6 0 0 1 0 51.2h-307.2a25.6 25.6 0 0 1 0-51.2z" fill="#2382ea" p-id="1995"></path></svg>