<?xml version="1.0" standalone="no"?><!DOCTYPE svg PUBLIC "-//W3C//DTD SVG 1.1//EN" "http://www.w3.org/Graphics/SVG/1.1/DTD/svg11.dtd"><svg t="1527750658709" class="icon" style="" viewBox="0 0 1024 1024" version="1.1" xmlns="http://www.w3.org/2000/svg" p-id="2647" xmlns:xlink="http://www.w3.org/1999/xlink" width="200" height="200"><defs><style type="text/css"></style></defs><path d="M880.384 660.928c1.056 21.088-2.208 51.744-12.48 65.408-12.544 16.64-46.976-3.328-71.584-56.48-6.848 24.608-22.656 62.208-58.432 109.888 59.84 13.664 76.928 72.704 56.768 104.96-14.208 22.752-46.688 41.44-102.752 41.44-99.68 0-143.744-26.784-163.36-45.44-4-4.064-9.792-6.048-17.12-6.048-7.36 0-13.152 1.984-17.152 6.048-19.648 18.656-63.68 45.44-163.392 45.44-56.032 0-88.544-18.688-102.752-41.44-20.128-32.288-3.072-91.328 56.8-104.96-35.776-47.712-51.584-85.28-58.432-109.888-24.608 53.152-59.04 73.12-71.584 56.48-10.304-13.632-13.536-44.32-12.512-65.408 5.824-80.16 59.616-147.296 90.688-182.016-4.288-10.112-14.816-68.576 25.728-108.48-0.064-0.96-0.064-1.92-0.064-2.848 0-157.408 112.032-270.72 252.64-271.232 140.576 0.512 252.608 113.824 252.608 271.232 0 0.928 0 1.888-0.064 2.848 40.544 39.904 30.048 98.4 25.728 108.48 31.072 34.72 84.864 101.856 90.688 182.016z m0 0z" fill="" p-id="2648"></path></svg>