<?xml version="1.0" standalone="no"?><!DOCTYPE svg PUBLIC "-//W3C//DTD SVG 1.1//EN" "http://www.w3.org/Graphics/SVG/1.1/DTD/svg11.dtd"><svg t="1527920777179" class="icon" style="" viewBox="0 0 1024 1024" version="1.1" xmlns="http://www.w3.org/2000/svg" p-id="2765" xmlns:xlink="http://www.w3.org/1999/xlink" width="200" height="200"><defs><style type="text/css"></style></defs><path d="M902.826667 35.84H121.173333c-66.56 0-119.466667 52.906667-119.466666 119.466667v576.853333c0 66.56 52.906667 119.466667 119.466666 119.466667h105.813334l76.8 122.88c6.826667 6.826667 13.653333 13.653333 23.893333 13.653333 10.24 0 17.066667-6.826667 23.893333-13.653333l85.333334-136.533334c6.826667-13.653333 3.413333-29.013333-10.24-39.253333-13.653333-6.826667-29.013333-3.413333-39.253334 10.24L324.266667 907.946667l-63.146667-98.986667c-6.826667-6.826667-13.653333-13.653333-23.893333-13.653333H121.173333c-35.84 0-63.146667-29.013333-63.146666-63.146667V155.306667C58.026667 119.466667 85.333333 92.16 121.173333 92.16h781.653334c35.84 0 63.146667 29.013333 63.146666 63.146667v576.853333c0 35.84-29.013333 63.146667-63.146666 63.146667H529.066667c-13.653333 0-29.013333 13.653333-29.013334 29.013333 0 13.653333 13.653333 29.013333 29.013334 29.013333h373.76c66.56 0 119.466667-52.906667 119.466666-119.466666V155.306667c0-63.146667-52.906667-119.466667-119.466666-119.466667z" fill="#2382EA" p-id="2766"></path><path d="M254.293333 440.32c0 17.066667 10.24 32.426667 23.893334 42.666667 13.653333 6.826667 32.426667 6.826667 49.493333 0 13.653333-6.826667 23.893333-23.893333 23.893333-42.666667s-10.24-32.426667-23.893333-42.666667c-13.653333-6.826667-32.426667-6.826667-49.493333 0-17.066667 11.946667-23.893333 29.013333-23.893334 42.666667zM465.92 440.32c0 23.893333 20.48 49.493333 49.493333 49.493333s49.493333-20.48 49.493334-49.493333c0-17.066667-10.24-32.426667-23.893334-42.666667-13.653333-6.826667-32.426667-6.826667-49.493333 0-15.36 11.946667-25.6 29.013333-25.6 42.666667zM680.96 440.32c0 23.893333 20.48 49.493333 49.493333 49.493333s49.493333-20.48 49.493334-49.493333c0-23.893333-20.48-49.493333-49.493334-49.493333s-49.493333 25.6-49.493333 49.493333z" fill="#2382EA" p-id="2767"></path></svg>