<?xml version="1.0" standalone="no"?><!DOCTYPE svg PUBLIC "-//W3C//DTD SVG 1.1//EN" "http://www.w3.org/Graphics/SVG/1.1/DTD/svg11.dtd"><svg t="1527751907096" class="icon" style="" viewBox="0 0 1024 1024" version="1.1" xmlns="http://www.w3.org/2000/svg" p-id="4205" xmlns:xlink="http://www.w3.org/1999/xlink" width="200" height="200"><defs><style type="text/css"></style></defs><path d="M120.6 232.2a391.5 168 0 1 0 783 0 391.5 168 0 1 0-783 0Z" p-id="4206"></path><path d="M509 458.4c-180.4 0-333.2-52.9-386-135.7-2.4 65.9-2.4 56.4-2.4 78.6 0 114 164.3 184.6 388.4 184.6s394.5-70.5 394.5-184.6c0-22.3 0.6 1.1-2-78.7-52.8 82.9-212.2 135.8-392.5 135.8z" p-id="4207"></path><path d="M509 644.3c-180.4 0-333.2-52.9-386-135.7-2.4 65.9-2.4 56.4-2.4 78.6 0 114 164.3 184.6 388.4 184.6s394.5-70.5 394.5-184.6c0-22.3 0.6 1.1-2-78.7-52.8 82.8-212.2 135.8-392.5 135.8z" p-id="4208"></path><path d="M509 830.1c-180.4 0-333.2-52.9-386-135.7-2.4 65.9-2.4 56.4-2.4 78.6 0 114 164.3 184.6 388.4 184.6S903.5 887.1 903.5 773c0-22.3 0.6 1.1-2-78.7-52.8 82.8-212.2 135.8-392.5 135.8z" p-id="4209"></path></svg>