<?xml version="1.0" standalone="no"?><!DOCTYPE svg PUBLIC "-//W3C//DTD SVG 1.1//EN" "http://www.w3.org/Graphics/SVG/1.1/DTD/svg11.dtd"><svg t="1527750399728" class="icon" style="" viewBox="0 0 1024 1024" version="1.1" xmlns="http://www.w3.org/2000/svg" p-id="1665" xmlns:xlink="http://www.w3.org/1999/xlink" width="200" height="200"><defs><style type="text/css"></style></defs><path d="M106.951359 476.000088c23.394826 0 42.358737 18.96391 42.358737 42.35976 0 23.390733-18.96391 42.357713-42.358737 42.357713s-42.358737-18.96698-42.358737-42.357713C64.592622 494.963998 83.556533 476.000088 106.951359 476.000088zM274.258852 476.000088c23.394826 0 42.35976 18.96391 42.35976 42.35976 0 23.390733-18.964934 42.357713-42.35976 42.357713s-42.358737-18.96698-42.358737-42.357713C231.900116 494.963998 250.864026 476.000088 274.258852 476.000088zM441.566346 476.000088c23.394826 0 42.358737 18.96391 42.358737 42.35976 0 23.390733-18.96391 42.357713-42.358737 42.357713s-42.35976-18.96698-42.35976-42.357713C399.207609 494.963998 418.17152 476.000088 441.566346 476.000088zM608.874863 476.000088c23.393803 0 42.35976 18.96391 42.35976 42.35976 0 23.390733-18.964934 42.357713-42.35976 42.357713s-42.35976-18.96698-42.35976-42.357713C566.515103 494.963998 585.480037 476.000088 608.874863 476.000088zM952.288237 489.278509 688.470689 225.459938c-12.095479-12.089339-35.304064-8.487302-51.842739 8.057513-16.537651 16.538675-20.148899 39.753399-8.05649 51.845809l226.63981 226.641857L628.5776 738.641857c-12.092409 12.087293-8.481162 35.310204 8.05649 51.839669 16.538675 16.540721 39.747259 20.146852 51.842739 8.065699l263.817548-263.820618c5.715165-5.708002 7.880481-13.919011 6.875594-22.721491C960.168718 503.201613 958.003402 494.998791 952.288237 489.278509z" p-id="1666"></path></svg>