<?xml version="1.0" standalone="no"?><!DOCTYPE svg PUBLIC "-//W3C//DTD SVG 1.1//EN" "http://www.w3.org/Graphics/SVG/1.1/DTD/svg11.dtd"><svg t="1528794793296" class="icon" style="" viewBox="0 0 1024 1024" version="1.1" xmlns="http://www.w3.org/2000/svg" p-id="5483" xmlns:xlink="http://www.w3.org/1999/xlink" width="200" height="200"><defs><style type="text/css"></style></defs><path d="M745.813333 1001.813333c-20.48 0-40.96-5.12-59.733333-15.36L546.133333 911.36c-22.186667-11.946667-47.786667-11.946667-68.266666 0l-141.653334 75.093333c-18.773333 10.24-39.253333 15.36-59.733333 15.36-25.6 0-52.906667-8.533333-75.093333-23.893333-39.253333-29.013333-59.733333-76.8-51.2-124.586667l27.306666-157.013333c3.413333-23.893333-3.413333-47.786667-20.48-64.853333l-114.346666-110.933334c-35.84-34.133333-47.786667-85.333333-32.426667-131.413333 15.36-46.08 54.613333-80.213333 104.106667-87.04l158.72-22.186667c23.893333-3.413333 44.373333-18.773333 56.32-40.96l69.973333-143.36c22.186667-44.373333 64.853333-71.68 114.346667-71.68 49.493333 0 93.866667 27.306667 114.346666 71.68l52.906667 107.52c6.826667 13.653333 1.706667 29.013333-11.946667 35.84-13.653333 6.826667-29.013333 1.706667-35.84-11.946666L580.266667 119.466667c-11.946667-25.6-37.546667-40.96-66.56-40.96-29.013333 0-52.906667 15.36-66.56 40.96l-69.973334 143.36c-18.773333 37.546667-54.613333 63.146667-95.573333 69.973333L119.466667 353.28c-29.013333 3.413333-51.2 22.186667-59.733334 49.493333-8.533333 27.306667-1.706667 56.32 18.773334 75.093334l114.346666 110.933333c30.72 29.013333 44.373333 71.68 37.546667 112.64l-27.306667 157.013333c-5.12 29.013333 6.826667 54.613333 29.013334 71.68 23.893333 17.066667 52.906667 18.773333 78.506666 5.12l141.653334-75.093333c37.546667-20.48 81.92-20.48 119.466666 0l141.653334 75.093333c25.6 13.653333 54.613333 11.946667 78.506666-5.12 23.893333-17.066667 34.133333-44.373333 29.013334-71.68l-27.306667-157.013333c-6.826667-40.96 6.826667-83.626667 37.546667-112.64l114.346666-110.933333c20.48-20.48 27.306667-47.786667 18.773334-75.093334-8.533333-27.306667-30.72-46.08-59.733334-49.493333l-93.866666-13.653333c-15.36-1.706667-25.6-15.36-22.186667-30.72 1.706667-15.36 15.36-25.6 30.72-22.186667l93.866667 13.653333c47.786667 6.826667 88.746667 40.96 104.106666 87.04 15.36 46.08 3.413333 97.28-32.426666 131.413334L870.4 629.76c-17.066667 17.066667-25.6 40.96-20.48 64.853333l25.6 157.013334c8.533333 47.786667-11.946667 95.573333-51.2 124.586666-25.6 17.066667-51.2 25.6-78.506667 25.6z m0 0" fill="#2382EA" p-id="5484"></path></svg>