<?xml version="1.0" standalone="no"?><!DOCTYPE svg PUBLIC "-//W3C//DTD SVG 1.1//EN" "http://www.w3.org/Graphics/SVG/1.1/DTD/svg11.dtd"><svg t="1527920774178" class="icon" style="" viewBox="0 0 1024 1024" version="1.1" xmlns="http://www.w3.org/2000/svg" p-id="2641" xmlns:xlink="http://www.w3.org/1999/xlink" width="200" height="200"><defs><style type="text/css"></style></defs><path d="M512 1003.52c-3.413333 0-10.24-1.706667-13.653333-3.413333-15.36-11.946667-404.48-264.533333-404.48-709.973334 0-10.24 5.12-17.066667 13.653333-20.48C334.506667 146.773333 494.933333 11.946667 496.64 10.24c10.24-8.533333 25.6-8.533333 32.426667 1.706667 0 0 58.026667 61.44 163.84 133.12 11.946667 8.533333 13.653333 23.893333 5.12 32.426666-8.533333 11.946667-23.893333 13.653333-32.426667 5.12-80.213333-54.613333-131.413333-100.693333-157.013333-126.293333C464.213333 95.573333 324.266667 203.093333 141.653333 302.08 150.186667 670.72 443.733333 901.12 512 948.906667c66.56-47.786667 360.106667-288.426667 370.346667-643.413334-25.6-11.946667-51.2-23.893333-73.386667-37.546666-11.946667-5.12-15.36-20.48-10.24-32.426667s20.48-15.36 32.426667-10.24c29.013333 15.36 56.32 29.013333 85.333333 40.96 10.24 3.413333 13.653333 11.946667 13.653333 20.48 0 433.493333-387.413333 698.026667-404.48 708.266667-3.413333 6.826667-10.24 8.533333-13.653333 8.533333z" fill="#2382EA" p-id="2642"></path><path d="M506.88 855.04c-1.706667 0-5.12 0-8.533333-1.706667-1.706667-3.413333-242.346667-182.613333-281.6-522.24 0-8.533333 3.413333-13.653333 11.946666-13.653333 8.533333 0 13.653333 3.413333 13.653334 11.946667C279.893333 658.773333 510.293333 831.146667 512 832.853333c5.12 3.413333 5.12 11.946667 1.706667 17.066667 0 1.706667-3.413333 5.12-6.826667 5.12z" fill="#2382EA" p-id="2643"></path></svg>