<?xml version="1.0" standalone="no"?><!DOCTYPE svg PUBLIC "-//W3C//DTD SVG 1.1//EN" "http://www.w3.org/Graphics/SVG/1.1/DTD/svg11.dtd"><svg t="1527752109126" class="icon" style="" viewBox="0 0 1024 1024" version="1.1" xmlns="http://www.w3.org/2000/svg" p-id="5402" xmlns:xlink="http://www.w3.org/1999/xlink" width="200" height="200"><defs><style type="text/css"></style></defs><path d="M977.6 99.2c-3.2-2.4-7.2-2.4-10.4-0.8l-937.6 480c-3.2 1.6-5.6 5.6-5.6 9.6s3.2 7.2 6.4 8.8l313.6 100c3.2 0.8 7.2 0 9.6-2.4l434.4-391.2-346.4 410.4c-2.4 2.4-3.2 5.6-1.6 8.8 0.8 3.2 3.2 5.6 6.4 6.4l348 106.4c0.8 0 1.6 0.8 2.4 0.8 1.6 0 3.2-0.8 4.8-1.6 2.4-1.6 4-3.2 4.8-6.4l174.4-718.4c0.8-4 0-8-3.2-10.4zM548 804l-96-29.6c-3.2-0.8-6.4 0-8.8 1.6-2.4 1.6-4 4.8-4 8v181.6c0 4 3.2 8 7.2 9.6h2.4c3.2 0 6.4-1.6 8-4.8l96-152c1.6-2.4 1.6-5.6 0.8-8.8 0-2.4-2.4-4.8-5.6-5.6z" p-id="5403"></path></svg>