<?xml version="1.0" standalone="no"?><!DOCTYPE svg PUBLIC "-//W3C//DTD SVG 1.1//EN" "http://www.w3.org/Graphics/SVG/1.1/DTD/svg11.dtd"><svg t="1528356511912" class="icon" style="" viewBox="0 0 1024 1024" version="1.1" xmlns="http://www.w3.org/2000/svg" p-id="2996" xmlns:xlink="http://www.w3.org/1999/xlink" width="200" height="200"><defs><style type="text/css"></style></defs><path d="M1020.245333 44.544c-3.413333-2.56-7.68-2.56-11.093333-0.853333L6.144 557.056c-3.413333 1.706667-5.973333 5.973333-5.973333 10.24s3.413333 7.68 6.826666 9.386667l335.530667 107.008c3.413333 0.853333 7.68 0 10.24-2.56L817.493333 262.656 446.805333 701.781333c-2.56 2.56-3.413333 5.973333-1.706666 9.386667 0.853333 3.413333 3.413333 5.973333 6.826666 6.826667l372.224 113.834666c0.853333 0 1.706667 0.853333 2.56 0.853334 1.706667 0 3.413333-0.853333 5.12-1.706667 2.56-1.706667 4.266667-3.413333 5.12-6.826667L1023.658667 55.637333c0.853333-4.266667 0-8.533333-3.413334-11.093333zM560.64 798.378667l-102.741333-31.744c-3.413333-0.853333-6.826667 0-9.386667 1.706666s-4.266667 5.12-4.266667 8.533334V971.093333c0 4.266667 3.413333 8.533333 7.68 10.24h2.56c3.413333 0 6.826667-1.706667 8.533334-5.12l102.741333-162.645333c1.706667-2.56 1.706667-5.973333 0.853333-9.386667 0-2.389333-2.56-4.949333-5.973333-5.802666z m0 0" fill="#9B9B9B" p-id="2997"></path></svg>