<?xml version="1.0" standalone="no"?><!DOCTYPE svg PUBLIC "-//W3C//DTD SVG 1.1//EN" "http://www.w3.org/Graphics/SVG/1.1/DTD/svg11.dtd"><svg t="1527823777751" class="icon" style="" viewBox="0 0 1039 1024" version="1.1" xmlns="http://www.w3.org/2000/svg" p-id="1958" xmlns:xlink="http://www.w3.org/1999/xlink" width="202.9296875" height="200"><defs><style type="text/css"></style></defs><path d="M32.345516 271.079999h900.121657A21.957791 21.957791 0 0 1 954.319398 292.995564v608.885334a21.957791 21.957791 0 0 1-21.915565 21.915565H32.345516a21.978905 21.978905 0 0 1-21.915565-21.915565V292.995564a21.978905 21.978905 0 0 1 21.915565-21.915565z m0 0" fill="#C0E4FF" p-id="1959"></path><path d="M915.090959 934.226414H49.742843A49.806183 49.806183 0 0 1 0 884.483571V310.371778a49.869523 49.869523 0 0 1 49.742843-49.72173h865.348116A49.869523 49.869523 0 0 1 964.876028 310.371778v574.111793a49.869523 49.869523 0 0 1-49.742842 49.742843zM49.742843 281.50995a29.051847 29.051847 0 0 0-28.882941 28.988507V884.652477a28.946281 28.946281 0 0 0 28.861828 28.861828h865.369229a28.882941 28.882941 0 0 0 28.861828-28.988507V310.371778a29.051847 29.051847 0 0 0-28.861828-28.988508H49.742843z m0 0" fill="#2382EA" p-id="1960"></path><path d="M18.199631 376.350718L658.290365 6.741971a23.224587 23.224587 0 0 1 31.881024 8.571984l254.837061 441.267155a23.224587 23.224587 0 0 1-8.571984 31.881024l-640.090734 369.482068a23.224587 23.224587 0 0 1-31.881025-8.571984L9.627647 408.231742a23.224587 23.224587 0 0 1 8.571984-31.881024z m0 0" fill="#FFFFFF" p-id="1961"></path><path d="M291.363002 864.784899a49.996202 49.996202 0 0 1-13.681393-1.857967 52.023075 52.023075 0 0 1-31.669892-24.34359L9.859893 429.45057a52.297548 52.297548 0 0 1 19.128614-71.405049L636.944858 6.974217a52.403114 52.403114 0 0 1 71.426162 19.128614l236.278504 409.132772a52.403114 52.403114 0 0 1-19.128614 71.489502L317.543446 857.838636a51.431904 51.431904 0 0 1-26.095991 6.967376zM662.956396 20.761176a31.923251 31.923251 0 0 0-15.644926 4.222652l-608.061918 351.176871a31.458759 31.458759 0 0 0-11.464501 43.007713l236.426297 409.090545a31.458759 31.458759 0 0 0 43.007713 11.464501l607.850785-350.944625a31.458759 31.458759 0 0 0 11.4645-43.007712L690.403635 36.659462a31.838798 31.838798 0 0 0-27.447239-15.877172z m0 0" fill="#2382EA" p-id="1962"></path><path d="M159.574027 477.778824l589.059982-340.092408L842.186869 299.815147l-589.059983 339.923502z m0 0" fill="#C0E4FF" p-id="1963"></path><path d="M32.345516 360.811358h900.121657A21.957791 21.957791 0 0 1 954.319398 382.726923v608.885335A21.957791 21.957791 0 0 1 932.467173 1013.443369H32.345516a21.978905 21.978905 0 0 1-21.915565-21.831111V382.726923a21.894452 21.894452 0 0 1 21.915565-21.915565z m0 0" fill="#FFFFFF" p-id="1964"></path><path d="M915.090959 350.381407H49.742843A49.869523 49.869523 0 0 0 0 400.12425v574.111794A49.869523 49.869523 0 0 0 49.742843 1024h865.348116A49.890636 49.890636 0 0 0 964.876028 974.236044V400.12425a49.953976 49.953976 0 0 0-49.742842-49.742843z m28.861828 623.854637a29.051847 29.051847 0 0 1-28.861828 28.988507H49.742843a29.051847 29.051847 0 0 1-28.882941-28.988507V400.12425a29.115187 29.115187 0 0 1 28.861828-28.988507h865.369229a28.904054 28.904054 0 0 1 28.861828 28.988507z m0 0" fill="#2382EA" p-id="1965"></path><path d="M810.158052 597.512127h197.556783a20.923242 20.923242 0 0 1 20.881015 20.859902v137.742915a20.923242 20.923242 0 0 1-20.881015 20.859902h-197.556783a20.923242 20.923242 0 0 1-20.859902-20.859902v-137.806254a20.859902 20.859902 0 0 1 20.859902-20.859902z m0 0" fill="#FFFFFF" p-id="1966"></path><path d="M991.140925 787.235891h-164.408963a47.884876 47.884876 0 0 1-47.884876-47.884876V634.882599a47.884876 47.884876 0 0 1 47.884876-47.927102h164.408963a47.905989 47.905989 0 0 1 47.884876 47.884876v104.447302a47.905989 47.905989 0 0 1-47.884876 47.884876z m-164.408963-179.357152a27.046087 27.046087 0 0 0-27.003861 27.024974v104.447302A27.046087 27.046087 0 0 0 826.731962 766.418216h164.408963a27.046087 27.046087 0 0 0 27.003861-27.024975v-104.510642a27.046087 27.046087 0 0 0-27.003861-27.024974z m0 0" fill="#2382EA" p-id="1967"></path><path d="M984.067983 749.654286H833.97381a34.18237 34.18237 0 0 1-34.203483-34.203482V738.970976a27.763938 27.763938 0 0 0 27.869505 27.848392h163.015488A27.763938 27.763938 0 0 0 1018.377032 738.970976v-23.499059a34.351276 34.351276 0 0 1-34.309049 34.203483z m0 0" fill="#C0E4FF" p-id="1968"></path><path d="M832.538108 687.159034a27.595032 27.595032 0 1 0 27.595033-27.595032 27.595032 27.595032 0 0 0-27.595033 27.595032z m0 0" fill="#FFFFFF" p-id="1969"></path><path d="M860.133141 723.304937a36.188129 36.188129 0 1 1 36.251469-36.25147 36.230356 36.230356 0 0 1-36.251469 36.25147z m0-55.063385a19.001935 19.001935 0 1 0 19.001934 19.001935 19.001935 19.001935 0 0 0-19.001934-19.001935z" fill="#2382EA" p-id="1970"></path><path d="M99.591252 450.774963h77.316762a8.318625 8.318625 0 0 1 8.445304 8.445305v13.216901a8.318625 8.318625 0 0 1-8.445304 8.445305H99.591252a8.318625 8.318625 0 0 1-8.445304-8.445305v-13.216901a8.318625 8.318625 0 0 1 8.445304-8.445305z m137.236197 0h77.337875a8.318625 8.318625 0 0 1 8.445304 8.445305v13.216901a8.318625 8.318625 0 0 1-8.445304 8.445305h-77.316762a8.318625 8.318625 0 0 1-8.445304-8.445305v-13.216901a8.445304 8.445304 0 0 1 8.445304-8.445305z m139.474202 0h77.337875a8.318625 8.318625 0 0 1 8.445305 8.445305v13.216901a8.318625 8.318625 0 0 1-8.445305 8.445305h-77.316762a8.318625 8.318625 0 0 1-8.445304-8.445305v-13.216901a8.318625 8.318625 0 0 1 8.445304-8.445305z m137.38399 0h77.337875a8.318625 8.318625 0 0 1 8.445304 8.445305v13.216901a8.318625 8.318625 0 0 1-8.445304 8.445305h-77.316762a8.318625 8.318625 0 0 1-8.445305-8.445305v-13.216901a8.318625 8.318625 0 0 1 8.445305-8.445305z m136.792818 0h77.337875a8.318625 8.318625 0 0 1 8.445304 8.445305v13.216901a8.318625 8.318625 0 0 1-8.445304 8.445305h-77.295649a8.318625 8.318625 0 0 1-8.445304-8.445305v-13.216901a8.445304 8.445304 0 0 1 8.445304-8.445305z m137.383989 0h77.358988a8.318625 8.318625 0 0 1 8.445305 8.445305v13.216901a8.318625 8.318625 0 0 1-8.445305 8.445305h-77.316761a8.318625 8.318625 0 0 1-8.445305-8.445305v-13.216901a8.318625 8.318625 0 0 1 8.445305-8.445305z m0 0" fill="#C0E4FF" p-id="1971"></path><path d="M99.591252 442.435225h77.316762a8.318625 8.318625 0 0 1 8.445304 8.445305v13.216901a8.318625 8.318625 0 0 1-8.445304 8.445305H99.591252a8.318625 8.318625 0 0 1-8.445304-8.445305v-13.322468a8.318625 8.318625 0 0 1 8.445304-8.445304z m137.236197 0h77.337875a8.318625 8.318625 0 0 1 8.445304 8.445305v13.216901a8.318625 8.318625 0 0 1-8.445304 8.445305h-77.316762a8.318625 8.318625 0 0 1-8.445304-8.445305v-13.322468a8.445304 8.445304 0 0 1 8.445304-8.445304z m139.474202 0h77.337875a8.318625 8.318625 0 0 1 8.445305 8.445305v13.216901a8.318625 8.318625 0 0 1-8.445305 8.445305h-77.316762a8.318625 8.318625 0 0 1-8.445304-8.445305v-13.322468a8.318625 8.318625 0 0 1 8.445304-8.445304z m137.38399 0h77.337875a8.318625 8.318625 0 0 1 8.445304 8.445305v13.216901a8.318625 8.318625 0 0 1-8.445304 8.445305h-77.316762a8.318625 8.318625 0 0 1-8.445305-8.445305v-13.322468a8.318625 8.318625 0 0 1 8.445305-8.445304z m136.792818 0h77.337875a8.318625 8.318625 0 0 1 8.445304 8.445305v13.216901a8.318625 8.318625 0 0 1-8.445304 8.445305h-77.295649a8.318625 8.318625 0 0 1-8.445304-8.445305v-13.322468a8.445304 8.445304 0 0 1 8.445304-8.445304z m137.383989 0h77.358988a8.318625 8.318625 0 0 1 8.445305 8.445305v13.216901a8.318625 8.318625 0 0 1-8.445305 8.445305h-77.316761a8.318625 8.318625 0 0 1-8.445305-8.445305v-13.322468a8.318625 8.318625 0 0 1 8.445305-8.445304z m0 0" fill="#2382EA" p-id="1972"></path><path d="M99.591252 904.773415h77.316762a8.318625 8.318625 0 0 1 8.445304 8.445304v13.216902a8.318625 8.318625 0 0 1-8.445304 8.445304H99.591252a8.318625 8.318625 0 0 1-8.445304-8.445304v-13.216902a8.318625 8.318625 0 0 1 8.445304-8.445304z m137.236197 0h77.337875a8.318625 8.318625 0 0 1 8.445304 8.445304v13.216902a8.318625 8.318625 0 0 1-8.445304 8.445304h-77.316762a8.318625 8.318625 0 0 1-8.445304-8.445304v-13.216902a8.445304 8.445304 0 0 1 8.445304-8.445304z m139.474202 0h77.337875a8.318625 8.318625 0 0 1 8.445305 8.445304v13.216902a8.318625 8.318625 0 0 1-8.445305 8.445304h-77.316762a8.318625 8.318625 0 0 1-8.445304-8.445304v-13.216902a8.318625 8.318625 0 0 1 8.445304-8.445304z m137.38399 0h77.337875a8.318625 8.318625 0 0 1 8.445304 8.445304v13.216902a8.318625 8.318625 0 0 1-8.445304 8.445304h-77.316762a8.318625 8.318625 0 0 1-8.445305-8.445304v-13.216902a8.318625 8.318625 0 0 1 8.445305-8.445304z m136.792818 0h77.337875a8.318625 8.318625 0 0 1 8.445304 8.445304v13.216902a8.318625 8.318625 0 0 1-8.445304 8.445304h-77.295649a8.318625 8.318625 0 0 1-8.445304-8.445304v-13.216902a8.445304 8.445304 0 0 1 8.445304-8.445304z m137.383989 0h77.358988a8.318625 8.318625 0 0 1 8.445305 8.445304v13.216902a8.318625 8.318625 0 0 1-8.445305 8.445304h-77.316761a8.318625 8.318625 0 0 1-8.445305-8.445304v-13.216902a8.318625 8.318625 0 0 1 8.445305-8.445304z m0 0" fill="#C0E4FF" p-id="1973"></path><path d="M99.591252 896.433677h77.316762a8.318625 8.318625 0 0 1 8.445304 8.445304v13.216902a8.318625 8.318625 0 0 1-8.445304 8.445304H99.591252a8.318625 8.318625 0 0 1-8.445304-8.445304v-13.216902a8.318625 8.318625 0 0 1 8.445304-8.445304z m137.236197 0h77.337875a8.318625 8.318625 0 0 1 8.445304 8.445304v13.216902a8.318625 8.318625 0 0 1-8.445304 8.445304h-77.316762a8.318625 8.318625 0 0 1-8.445304-8.445304v-13.216902a8.445304 8.445304 0 0 1 8.445304-8.445304z m139.474202 0h77.337875a8.318625 8.318625 0 0 1 8.445305 8.445304v13.216902a8.318625 8.318625 0 0 1-8.445305 8.445304h-77.316762a8.318625 8.318625 0 0 1-8.445304-8.445304v-13.216902a8.318625 8.318625 0 0 1 8.445304-8.445304z m137.38399 0h77.337875a8.318625 8.318625 0 0 1 8.445304 8.445304v13.216902a8.318625 8.318625 0 0 1-8.445304 8.445304h-77.316762a8.318625 8.318625 0 0 1-8.445305-8.445304v-13.216902a8.318625 8.318625 0 0 1 8.445305-8.445304z m136.792818 0h77.337875a8.318625 8.318625 0 0 1 8.445304 8.445304v13.216902a8.318625 8.318625 0 0 1-8.445304 8.445304h-77.295649a8.318625 8.318625 0 0 1-8.445304-8.445304v-13.216902a8.445304 8.445304 0 0 1 8.445304-8.445304z m137.383989 0h77.358988a8.318625 8.318625 0 0 1 8.445305 8.445304v13.216902a8.318625 8.318625 0 0 1-8.445305 8.445304h-77.316761a8.318625 8.318625 0 0 1-8.445305-8.445304v-13.216902a8.318625 8.318625 0 0 1 8.445305-8.445304z m0 0" fill="#2382EA" p-id="1974"></path><path d="M905.463312 988.107456H59.24381a38.552815 38.552815 0 0 1-38.489474-38.468361v24.575836a29.558565 29.558565 0 0 0 29.452999 29.452999h864.292453a29.558565 29.558565 0 0 0 29.452999-29.452999v-24.575836A38.552815 38.552815 0 0 1 905.463312 988.107456z m0 0" fill="#C0E4FF" p-id="1975"></path></svg>