<?xml version="1.0" standalone="no"?><!DOCTYPE svg PUBLIC "-//W3C//DTD SVG 1.1//EN" "http://www.w3.org/Graphics/SVG/1.1/DTD/svg11.dtd"><svg t="1528356514983" class="icon" style="" viewBox="0 0 1024 1024" version="1.1" xmlns="http://www.w3.org/2000/svg" p-id="3119" xmlns:xlink="http://www.w3.org/1999/xlink" width="200" height="200"><defs><style type="text/css"></style></defs><path d="M780.288 991.402667c-10.752 0-23.381333-3.584-34.133333-9.045334l-233.813334-116.906666-235.690666 116.906666c-23.381333 12.629333-53.930667 10.752-75.605334-5.461333-21.504-16.213333-34.133333-44.885333-28.842666-72.021333l48.64-251.733334L35.669333 480.597333C15.872 460.8 8.704 430.08 15.872 404.992c9.045333-26.965333 30.549333-46.762667 59.392-50.346667l257.194667-46.762666 115.2-233.813334c12.629333-25.258667 37.717333-41.301333 64.682666-41.301333 26.965333 0 53.930667 16.213333 64.682667 41.301333l115.029333 233.813334 257.194667 45.056c26.965333 3.584 50.346667 23.381333 57.514667 50.346666 9.045333 26.965333 1.877333 55.808-17.92 75.605334L803.669333 653.141333l46.762667 251.733334c5.461333 28.842667-7.168 55.808-28.842667 72.021333-10.752 9.045333-25.088 14.506667-41.301333 14.506667z m0 0" fill="#9B9B9B" p-id="3120"></path></svg>