<?xml version="1.0" standalone="no"?><!DOCTYPE svg PUBLIC "-//W3C//DTD SVG 1.1//EN" "http://www.w3.org/Graphics/SVG/1.1/DTD/svg11.dtd"><svg t="1527751869274" class="icon" style="" viewBox="0 0 1024 1024" version="1.1" xmlns="http://www.w3.org/2000/svg" p-id="3989" xmlns:xlink="http://www.w3.org/1999/xlink" width="200" height="200"><defs><style type="text/css"></style></defs><path d="M518.707056 52.187394c-251.604892 0-455.561994 203.957103-455.561994 455.561994S267.114205 963.311383 518.707056 963.311383 974.26905 759.35428 974.26905 507.749389 770.311947 52.187394 518.707056 52.187394zM518.707056 907.258702c-219.815616 0-398.61825-179.693697-398.61825-399.509313S298.891439 109.131138 518.707056 109.131138s398.61825 178.802634 398.61825 398.61825S738.522672 907.258702 518.707056 907.258702zM547.172907 496.225776 547.172907 223.018627c0-15.7381-12.739793-28.465851-28.465851-28.465851s-28.465851 12.739793-28.465851 28.465851l0 284.730762c0 8.079774 3.395673 15.328692 8.790216 20.518532 0.469614 0.541863 0.830856 1.131891 1.348636 1.649671l140.908373 140.944497c11.126246 11.078081 29.152211 11.078081 40.278457 0 11.090122-11.126246 11.090122-29.164252 0-40.290499L547.172907 496.225776z" p-id="3990"></path></svg>