<?xml version="1.0" standalone="no"?><!DOCTYPE svg PUBLIC "-//W3C//DTD SVG 1.1//EN" "http://www.w3.org/Graphics/SVG/1.1/DTD/svg11.dtd"><svg t="1528109470476" class="icon" style="" viewBox="0 0 1024 1024" version="1.1" xmlns="http://www.w3.org/2000/svg" p-id="2090" xmlns:xlink="http://www.w3.org/1999/xlink" width="200" height="200"><defs><style type="text/css"></style></defs><path d="M469.835294 0h521.035294L0 995.689412V458.992941z" fill="#FC5A5D" p-id="2091"></path><path d="M281.298824 381.891765L246.964706 416.828235l101.797647 99.990589-25.901177 26.503529-102.4-99.990588-34.334117 34.93647-21.684706-21.082353 95.171765-96.978823 21.684706 21.684706zM325.270588 420.442353c-19.275294-19.275294-29.515294-40.357647-30.72-63.247059-1.204706-23.491765 7.830588-43.971765 25.901177-62.644706 17.468235-17.468235 37.345882-25.901176 59.632941-25.298823s42.767059 10.24 60.837647 28.310588c19.275294 18.672941 29.515294 39.755294 30.117647 62.644706C472.244706 383.096471 463.811765 403.576471 445.741176 421.647059c-17.468235 17.468235-37.345882 26.503529-59.632941 25.901176-21.684706 0-42.164706-9.035294-60.837647-27.105882z m25.901177-28.912941c12.047059 12.047059 24.696471 18.672941 37.948235 20.48 13.251765 1.807059 24.696471-2.409412 34.936471-12.649412 10.24-10.24 14.456471-21.684706 12.649411-34.936471-1.807059-12.649412-8.432941-25.298824-21.082353-37.345882-12.649412-12.649412-25.901176-19.877647-38.550588-21.684706s-24.696471 2.409412-34.334117 12.649412c-10.24 10.24-14.456471 22.287059-12.649412 35.538823 1.807059 13.251765 9.035294 25.901176 21.082353 37.948236zM507.181176 269.854118l42.767059 42.164706-25.901176 26.503529L401.167059 216.847059l41.562353-42.164706c30.117647-30.72 58.428235-33.129412 84.329412-7.830588 12.649412 12.649412 18.070588 27.105882 16.865882 43.971764s-9.035294 31.924706-23.491765 45.778824l-13.251765 13.251765z m-60.235294-59.030589l39.755294 39.152942 11.444706-11.444706c15.058824-15.661176 16.263529-29.515294 2.409412-42.767059-13.251765-12.649412-27.105882-11.444706-42.164706 3.614118L446.945882 210.823529z" fill="#FFFFFF" p-id="2092"></path></svg>