<?xml version="1.0" standalone="no"?><!DOCTYPE svg PUBLIC "-//W3C//DTD SVG 1.1//EN" "http://www.w3.org/Graphics/SVG/1.1/DTD/svg11.dtd"><svg t="1527750459150" class="icon" style="" viewBox="0 0 1024 1024" version="1.1" xmlns="http://www.w3.org/2000/svg" p-id="1881" xmlns:xlink="http://www.w3.org/1999/xlink" width="200" height="200"><defs><style type="text/css"></style></defs><path d="M770.950734 197.413646a437.850902 437.850902 0 0 0-195.319576-54.160253v168.191857A270.610894 270.610894 0 0 1 686.902398 342.665923zM796.745864 716.457334a273.942368 273.942368 0 0 1-123.169363 114.221974 270.610894 270.610894 0 0 1-97.945343 24.938465v168.191857a437.850902 437.850902 0 0 0 182.088864-47.592489c9.994423-5.044804 19.893661-10.470348 29.412159-16.276632A444.228295 444.228295 0 0 0 924.57929 829.061164c6.282209-9.518498 12.088492-19.036996 17.609221-28.555494a437.850902 437.850902 0 0 0 56.063952-185.134783H829.489496a270.515709 270.515709 0 0 1-32.743632 101.086447zM792.843279 443.94274a272.133854 272.133854 0 0 1 38.073992 137.732664h168.096672a437.850902 437.850902 0 0 0-45.11768-192.178471q-7.424428-15.134412-15.991076-29.507344a443.94274 443.94274 0 0 0-138.208589-145.157092L715.553077 360.655884a274.608663 274.608663 0 0 1 77.290202 83.286856zM287.125488 592.336122V307.637851h95.184979V138.684514h-95.184979V0H118.172151v138.684514H24.510132v168.953337h93.662019v284.888641a440.992006 440.992006 0 0 0 423.763525 431.473508v-168.477412a271.657929 271.657929 0 0 1-254.810188-263.186466z" fill="#2c2c2c" p-id="1882"></path></svg>