<?xml version="1.0" standalone="no"?><!DOCTYPE svg PUBLIC "-//W3C//DTD SVG 1.1//EN" "http://www.w3.org/Graphics/SVG/1.1/DTD/svg11.dtd"><svg t="1527751994074" class="icon" style="" viewBox="0 0 1024 1024" version="1.1" xmlns="http://www.w3.org/2000/svg" p-id="4641" xmlns:xlink="http://www.w3.org/1999/xlink" width="200" height="200"><defs><style type="text/css"></style></defs><path d="M511.996 113.852c-26.863 0-48.639 21.776-48.639 48.639v749.892c0 26.863 21.776 48.639 48.639 48.639 26.863 0 48.639-21.776 48.639-48.64v-749.89c0-26.863-21.776-48.64-48.64-48.64z m34.518-35.883c-18.995-18.995-48.701-20.085-66.352-2.434L121.89 433.807c-17.65 17.651-16.561 47.358 2.434 66.352 18.994 18.995 48.7 20.085 66.352 2.434L548.949 144.32c17.65-17.65 16.56-47.357-2.435-66.351z m-69.03 0c-18.994 18.994-20.084 48.701-2.433 66.352l358.273 358.273c17.65 17.65 47.358 16.561 66.352-2.434 18.995-18.994 20.085-48.7 2.434-66.352L543.837 75.535c-17.65-17.65-47.357-16.56-66.352 2.434z" fill="" p-id="4642"></path></svg>