<?xml version="1.0" standalone="no"?><!DOCTYPE svg PUBLIC "-//W3C//DTD SVG 1.1//EN" "http://www.w3.org/Graphics/SVG/1.1/DTD/svg11.dtd"><svg t="1527751847613" class="icon" style="" viewBox="0 0 1025 1024" version="1.1" xmlns="http://www.w3.org/2000/svg" p-id="3880" xmlns:xlink="http://www.w3.org/1999/xlink" width="200.1953125" height="200"><defs><style type="text/css"></style></defs><path d="M372.2496 494.55616c0 18.32448 3.6352 36.58752 10.60864 53.4784 7.00928 16.896 17.3568 32.4352 30.336 45.3376 12.94336 12.96384 28.41088 23.33184 45.32224 30.32064 16.91136 7.02464 35.19488 10.624 53.4784 10.624 18.31936 0 36.60288-3.59936 53.51936-10.624 16.87552-6.9888 32.37376-17.3568 45.32224-30.32064 12.94336-12.90752 23.29088-28.44672 30.336-45.3376 6.97344-16.896 10.60864-35.15392 10.60864-53.4784 0-18.304-3.6352-36.57216-10.60864-53.46304-7.04512-16.95232-17.38752-32.43008-30.336-45.35808-12.94336-12.94336-28.44672-23.31136-45.32224-30.30016-16.91648-7.02976-35.2-10.624-53.51936-10.624-18.28352 0-36.57216 3.59936-53.4784 10.624-16.91136 6.99392-32.37888 17.3568-45.32224 30.30016-12.9792 12.92288-23.32672 28.40576-30.336 45.35808C375.8848 457.984 372.2496 476.25216 372.2496 494.55616" p-id="3881"></path><path d="M1014.98368 460.80512c0 0-0.59392-13.33248-123.8016-128.512-176.13312-152.30464-333.16352-174.16704-449.92-159.73888-116.79232 14.464-204.65152 77.32736-211.6608 81.23904-55.48544 30.85824-139.82208 113.24928-167.936 142.5664-28.14976 29.28128-44.1344 41.75872-53.51936 60.91776-22.25152 45.6704 8.19712 91.3664 8.19712 91.3664l77.70112 78.12096c0 0 174.98112 193.55136 404.62848 193.55136 229.65248 0 338.61632-98.64192 384.67584-134.5792 46.1056-35.9168 102.70208-101.15584 131.63008-139.82208C1035.26912 502.58432 1014.98368 460.80512 1014.98368 460.80512M511.99488 729.23136c-129.62304 0-234.65472-105.06752-234.65472-234.65984 0-129.61792 105.03168-234.70592 234.65472-234.70592 129.61792 0 234.69568 105.088 234.69568 234.70592C746.69056 624.15872 641.6128 729.23136 511.99488 729.23136" p-id="3882"></path></svg>