<?xml version="1.0" standalone="no"?><!DOCTYPE svg PUBLIC "-//W3C//DTD SVG 1.1//EN" "http://www.w3.org/Graphics/SVG/1.1/DTD/svg11.dtd"><svg t="1527751826477" class="icon" style="" viewBox="0 0 1024 1024" version="1.1" xmlns="http://www.w3.org/2000/svg" p-id="3771" xmlns:xlink="http://www.w3.org/1999/xlink" width="200" height="200"><defs><style type="text/css"></style></defs><path d="M824.536133 334.654896c-55.186903-41.006949-169.172981-109.800755-312.533063-109.800755-142.891408 0-256.920464 69.355601-312.173882 110.697171-37.611619 28.141944-70.431096 59.563584-94.909603 90.867544-25.91216 33.137725-39.271422 61.73811-39.705304 85.006046-0.317225 16.986883 6.492878 37.044708 20.240997 59.615773 11.9471 19.614733 29.1499 41.075511 49.747008 62.059428 43.145659 43.959188 98.951663 83.904968 157.1389 112.479771 72.371284 35.541471 146.276505 53.562916 219.662909 53.562916 143.360082 0 257.347183-68.793806 312.533063-109.800755 37.894052-28.157293 70.781066-59.589167 95.105055-90.899266 25.981744-33.44267 39.155788-62.527079 39.155788-86.444814C958.796976 458.408431 891.364167 384.312876 824.536133 334.654896zM871.155916 560.774867c-20.662599 26.596751-50.223868 54.754045-83.239819 79.285764-49.097208 36.481889-150.229536 97.68481-275.91405 97.68481-138.65799 0-262.924201-76.272127-332.982814-147.651828-39.938618-40.691771-52.562123-69.799716-52.41886-77.521584 0.25378-13.5936 32.269961-69.691245 110.010533-127.860063 49.145303-36.771485 150.273539-98.459452 275.391141-98.459452 125.684514 0 226.816842 61.20292 275.91405 97.68481 33.015951 24.532743 62.576197 52.690036 83.239819 79.285764 20.757766 26.718525 26.242687 43.588751 26.242687 48.77589S891.914706 534.057365 871.155916 560.774867z" p-id="3772"></path><path d="M512 375.683335c-75.165933 0-136.316665 61.151755-136.316665 136.316665 0 75.165933 61.151755 136.316665 136.316665 136.316665 75.16491 0 136.316665-61.151755 136.316665-136.316665C648.316665 436.834067 587.16491 375.683335 512 375.683335zM512 586.918293c-41.310871 0-74.918293-33.608445-74.918293-74.918293 0-41.309848 33.608445-74.918293 74.918293-74.918293 41.309848 0 74.918293 33.608445 74.918293 74.918293C586.918293 553.309848 553.309848 586.918293 512 586.918293z" p-id="3773"></path></svg>