<?xml version="1.0" standalone="no"?><!DOCTYPE svg PUBLIC "-//W3C//DTD SVG 1.1//EN" "http://www.w3.org/Graphics/SVG/1.1/DTD/svg11.dtd"><svg t="1528353605724" class="icon" style="" viewBox="0 0 1024 1024" version="1.1" xmlns="http://www.w3.org/2000/svg" p-id="6733" xmlns:xlink="http://www.w3.org/1999/xlink" width="200" height="200"><defs><style type="text/css"></style></defs><path d="M924.501333 876.032v-121.173333c0-13.482667 10.752-24.234667 24.234667-24.234667 13.482667 0 24.234667 10.752 24.234667 24.234667v145.408c0 13.482667-10.752 24.234667-24.234667 24.234666H26.794667c-13.482667 0-24.234667-10.752-24.234667-24.234666v-776.533334c0-13.482667 10.752-24.234667 24.234667-24.234666h921.941333c13.482667 0 24.234667 10.752 24.234667 24.234666v145.408c0 13.482667-10.752 24.234667-24.234667 24.234667-13.482667 0-24.234667-10.752-24.234667-24.234667v-121.173333H51.029333v728.064h873.472zM972.970667 390.826667H705.877333c-67.072 0-121.173333 54.101333-121.173333 121.173333s54.101333 121.173333 121.173333 121.173333h267.093334V390.826667z m-267.093334-48.469334h291.328c13.482667 0 24.234667 10.752 24.234667 24.234667v291.328c0 13.482667-10.752 24.234667-24.234667 24.234667H705.877333c-93.866667 0-169.642667-75.776-169.642666-169.642667s76.288-170.154667 169.642666-170.154667z m0 193.877334c-13.482667 0-24.234667-10.752-24.234666-24.234667 0-13.482667 10.752-24.234667 24.234666-24.234667H754.346667c13.482667 0 24.234667 10.752 24.234666 24.234667 0 13.482667-10.752 24.234667-24.234666 24.234667h-48.469334z m0 0" fill="#2382EA" p-id="6734"></path></svg>