<?xml version="1.0" standalone="no"?><!DOCTYPE svg PUBLIC "-//W3C//DTD SVG 1.1//EN" "http://www.w3.org/Graphics/SVG/1.1/DTD/svg11.dtd"><svg t="1527751811396" class="icon" style="" viewBox="0 0 1024 1024" version="1.1" xmlns="http://www.w3.org/2000/svg" p-id="3663" xmlns:xlink="http://www.w3.org/1999/xlink" width="200" height="200"><defs><style type="text/css"></style></defs><path d="M822.857143 786.285714V694.857143a18.285714 18.285714 0 1 1 36.571428 0v109.714286a18.285714 18.285714 0 0 1-18.285714 18.285714H146.285714a18.285714 18.285714 0 0 1-18.285714-18.285714V219.428571a18.285714 18.285714 0 0 1 18.285714-18.285714h694.857143a18.285714 18.285714 0 0 1 18.285714 18.285714v109.714286a18.285714 18.285714 0 1 1-36.571428 0V237.714286h-658.285714v548.571428h658.285714z m36.571428-365.714285H658.285714a91.428571 91.428571 0 1 0 0 182.857142h201.142857v-182.857142z m-201.142857-36.571429h219.428572a18.285714 18.285714 0 0 1 18.285714 18.285714v219.428572a18.285714 18.285714 0 0 1-18.285714 18.285714h-219.428572a128 128 0 0 1 0-256z m0 146.285714a18.285714 18.285714 0 1 1 0-36.571428h36.571429a18.285714 18.285714 0 1 1 0 36.571428h-36.571429z" p-id="3664"></path></svg>