<?xml version="1.0" standalone="no"?><!DOCTYPE svg PUBLIC "-//W3C//DTD SVG 1.1//EN" "http://www.w3.org/Graphics/SVG/1.1/DTD/svg11.dtd"><svg t="1528358324883" class="icon" style="" viewBox="0 0 1024 1024" version="1.1" xmlns="http://www.w3.org/2000/svg" p-id="2770" xmlns:xlink="http://www.w3.org/1999/xlink" width="200" height="200"><defs><style type="text/css"></style></defs><path d="M294.03188018 760.4c86.69999971 47.09999971 176.10000029 18.60000029 221.09999941-39.89999971s18.60000029-200.7-129.8999997-183.30000029C237.03187959 554.59999971 254.13187959 693.8 254.13187959 693.8s-1.19999971 44.1 39.90000059 66.6z m121.79999971-132.90000029c11.09999971-8.1 22.5-5.69999971 27.2999997 2.40000029 5.10000029 8.39999971 1.50000029 20.99999971-7.79999941 28.19999971-9.29999971 6.90000029-20.99999971 6.00000029-25.80000029-2.39999942-5.10000029-8.1-2.99999971-21.30000029 6.3-28.20000058z m-70.2 18.9c31.79999971-2.99999971 52.49999971 15.3 52.4999997 38.40000029 0 23.10000029-22.5 44.39999971-50.09999941 47.7-27.60000029 3.30000029-50.10000029-12.89999971-50.10000029-36 0-22.79999971 19.8-47.09999971 47.7-50.10000029zM667.23187959 230.3s19.19999971-2.7 32.10000029-7.80000029c12.89999971-5.10000029 121.20000029-3.89999971 175.2000003 87.00000029 29.40000029 66.30000029 12.89999971 110.40000029 10.8 117.60000029 0 0-6.90000029 17.1-6.9000003 34.2 0 19.50000029 15.59999971 31.79999971 35.1 31.79999971 16.2 0 29.99999971-2.09999971 33.9000003-29.7h0.2999997c57.89999971-193.20000029-70.80000029-284.10000029-164.40000029-306-52.49999971-12.30000029-106.2-1.8-121.5 1.19999971-1.19999971 0-2.09999971 1.19999971-3.29999941 1.50000029-0.60000029 0-0.9 0.60000029-0.9 0.60000029-15.00000029 4.20000029-25.80000029 18-25.8000003 34.2 0 19.50000029 15.90000029 35.39999971 35.39999971 35.39999971z" p-id="2771"></path><path d="M403.83188018 871.1c148.5 11.7 348.90000029-51.3 409.5-180.60000029 60.90000029-129.6-49.5-180.9-84.90000059-188.1-34.80000029-6.90000029-18-25.80000029-18-25.79999942s34.2-56.7-6.89999941-97.80000029c-51.00000029-51.00000029-174.6 6.59999971-174.6 6.59999971-47.09999971 14.69999971-34.80000029-6.59999971-27.9-43.2 0-42.90000029-14.69999971-115.49999971-140.4-72.59999942C235.53188018 312.80000029 127.53188018 464.00000029 127.53188018 464.00000029 52.53187959 564.2 62.43187959 641.89999971 62.43187959 641.89999971c18.9 171 200.40000029 218.09999971 341.40000059 229.20000029z m11.09999971-398.7c147.6-6.90000029 267.00000029 54.29999971 267.00000029 152.70000029 0 98.70000029-119.40000029 191.09999971-267.00000029 198-147.30000029 6.90000029-266.4-67.20000029-266.4-165.90000058-0.29999971-99 118.8-178.2 266.4-184.79999971zM801.03187988 442.09999971c11.99999971 0 21.89999971-8.70000029 23.69999971-20.39999942 0.29999971-0.9 0.29999971-1.50000029 0.30000059-2.7 18-163.19999971-133.49999971-135-133.50000059-135-13.5 0-24.3 10.8-24.3 24.59999971 0 13.5 10.8 24.3 24.3 24.3 108.9-24.00000029 84.89999971 85.20000029 84.90000059 85.20000029 0 13.20000029 11.09999971 24.00000029 24.5999997 23.99999942z" p-id="2772"></path></svg>