<?xml version="1.0" standalone="no"?><!DOCTYPE svg PUBLIC "-//W3C//DTD SVG 1.1//EN" "http://www.w3.org/Graphics/SVG/1.1/DTD/svg11.dtd"><svg t="1527751977049" class="icon" style="" viewBox="0 0 1024 1024" version="1.1" xmlns="http://www.w3.org/2000/svg" p-id="4532" xmlns:xlink="http://www.w3.org/1999/xlink" width="200" height="200"><defs><style type="text/css"></style></defs><path d="M264.000717 794.624c98.645333 53.589333 200.362667 21.162667 251.562666-45.397333s21.162667-228.352-147.797333-208.554667C199.147383 560.469333 218.603383 718.848 218.603383 718.848s-1.365333 50.176 45.397334 75.776z m138.581333-151.210667c12.629333-9.216 25.6-6.485333 31.061333 2.730667 5.802667 9.557333 1.706667 23.893333-8.874666 32.085333-10.581333 7.850667-23.893333 6.826667-29.354667-2.730666-5.802667-9.216-3.413333-24.234667 7.168-32.085334z m-79.872 21.504c36.181333-3.413333 59.733333 17.408 59.733333 43.690667 0 26.282667-25.6 50.517333-57.002666 54.272-31.402667 3.754667-57.002667-14.677333-57.002667-40.96 0-25.941333 22.528-53.589333 54.272-57.002667zM688.619383 191.488s21.845333-3.072 36.522667-8.874667c14.677333-5.802667 137.898667-4.437333 199.338667 98.986667 33.450667 75.434667 14.677333 125.610667 12.288 133.802667 0 0-7.850667 19.456-7.850667 38.912 0 22.186667 17.749333 36.181333 39.936 36.181333 18.432 0 34.133333-2.389333 38.570667-33.792h0.341333c65.877333-219.818667-80.554667-323.242667-187.050667-348.16-59.733333-13.994667-120.832-2.048-138.24 1.365333-1.365333 0-2.389333 1.365333-3.754666 1.706667-0.682667 0-1.024 0.682667-1.024 0.682667-17.066667 4.778667-29.354667 20.48-29.354667 38.912 0 22.186667 18.090667 40.277333 40.277333 40.277333z" p-id="4533"></path><path d="M388.928717 920.576c168.96 13.312 396.970667-58.368 465.92-205.482667 69.290667-147.456-56.32-205.824-96.597334-214.016-39.594667-7.850667-20.48-29.354667-20.48-29.354666s38.912-64.512-7.850666-111.274667c-58.026667-58.026667-198.656 7.509333-198.656 7.509333-53.589333 16.725333-39.594667-7.509333-31.744-49.152 0-48.810667-16.725333-131.413333-159.744-82.602666C197.440717 285.354667 74.560717 457.386667 74.560717 457.386667-10.772617 571.392 0.491383 659.797333 0.491383 659.797333c21.504 194.56 228.010667 248.149333 388.437334 260.778667z m12.629333-453.632c167.936-7.850667 303.786667 61.781333 303.786667 173.738667 0 112.298667-135.850667 217.429333-303.786667 225.28-167.594667 7.850667-303.104-76.458667-303.104-188.757334-0.341333-112.64 135.168-202.752 303.104-210.261333zM840.85405 432.469333c13.653333 0 24.917333-9.898667 26.965333-23.210666 0.341333-1.024 0.341333-1.706667 0.341334-3.072 20.48-185.685333-151.893333-153.6-151.893334-153.6-15.36 0-27.648 12.288-27.648 27.989333 0 15.36 12.288 27.648 27.648 27.648 123.904-27.306667 96.597333 96.938667 96.597334 96.938667 0 15.018667 12.629333 27.306667 27.989333 27.306666z" p-id="4534"></path></svg>