<?xml version="1.0" standalone="no"?><!DOCTYPE svg PUBLIC "-//W3C//DTD SVG 1.1//EN" "http://www.w3.org/Graphics/SVG/1.1/DTD/svg11.dtd"><svg t="1528358321544" class="icon" style="" viewBox="0 0 1024 1024" version="1.1" xmlns="http://www.w3.org/2000/svg" p-id="2646" xmlns:xlink="http://www.w3.org/1999/xlink" width="200" height="200"><defs><style type="text/css"></style></defs><path d="M670.024 368.251c10.26 0 20.38 0.788 30.536 1.902-27.361-127.435-163.539-222.082-319.067-222.082-173.814 0-316.202 118.451-316.202 268.934 0 86.832 47.34 158.129 126.509 213.513l-31.584 95.102 110.56-55.386c39.525 7.748 71.229 15.809 110.717 15.809 9.93 0 19.771-0.451 29.473-1.187-6.123-21.148-9.771-43.275-9.771-66.341 0.07-138.134 118.657-250.264 268.829-250.264z m-169.977-85.713c23.887 0 39.592 15.705 39.592 39.47 0 23.68-15.706 39.543-39.592 39.543-23.627 0-47.41-15.863-47.41-39.542 0-23.835 23.73-39.471 47.41-39.471zM278.751 361.55c-23.731 0-47.62-15.863-47.62-39.542 0-23.767 23.889-39.471 47.62-39.471s39.489 15.636 39.489 39.47c0 23.68-15.757 39.543-39.489 39.543z m0 0" p-id="2647"></path><path d="M958.71 614.708c0-126.404-126.544-229.428-268.653-229.428-150.486 0-268.916 103.095-268.916 229.428 0 126.754 118.499 229.462 268.916 229.462 31.515 0 63.272-7.886 94.89-15.809l86.69 47.568-23.767-79.049c63.482-47.705 110.84-110.838 110.84-182.172z m-355.868-39.575c-15.704 0-31.618-15.633-31.618-31.618 0-15.74 15.915-31.584 31.618-31.584 24.011 0 39.577 15.844 39.577 31.584 0 15.985-15.566 31.618-39.577 31.618z m173.939 0c-15.566 0-31.445-15.633-31.445-31.618 0-15.74 15.809-31.584 31.445-31.584 23.801 0 39.576 15.844 39.576 31.584 0 15.985-15.776 31.618-39.576 31.618z m0 0" p-id="2648"></path></svg>