<?xml version="1.0" standalone="no"?><!DOCTYPE svg PUBLIC "-//W3C//DTD SVG 1.1//EN" "http://www.w3.org/Graphics/SVG/1.1/DTD/svg11.dtd"><svg t="1527823783989" class="icon" style="" viewBox="0 0 1236 1024" version="1.1" xmlns="http://www.w3.org/2000/svg" p-id="2222" xmlns:xlink="http://www.w3.org/1999/xlink" width="241.40625" height="200"><defs><style type="text/css"></style></defs><path d="M542.069527 1009.559891l-507.911416-198.852988a19.84813 19.84813 0 0 1-19.810961-19.773792V34.158111A19.84813 19.84813 0 0 1 34.158111 14.34715l507.911416 198.852987a19.84813 19.84813 0 0 1 19.810961 19.792377v756.756416a19.866714 19.866714 0 0 1-19.810961 19.810961z m0 0" fill="#C0E4FF" p-id="2223"></path><path d="M413.205357 385.997808a14.328566 14.328566 0 0 1-5.240798-1.003557L158.171755 287.073093h-0.278766a14.34715 14.34715 0 1 1 10.481597-26.668602l0.260181 0.130091 249.792804 97.939743a14.34715 14.34715 0 0 1-3.828385 27.634989zM413.186773 585.408327a13.956878 13.956878 0 0 1-5.185046-0.984973L158.431936 486.632287a14.34715 14.34715 0 1 1 10.370091-26.761523l249.644128 97.865405a14.34715 14.34715 0 0 1-4.627513 27.690743zM413.186773 784.168393a14.291397 14.291397 0 0 1-5.240799-0.984973L158.264677 685.280846h-0.185844a14.34715 14.34715 0 1 1 10.481596-26.687186l0.353104 0.148675 249.532622 97.809652a14.34715 14.34715 0 0 1-4.348747 27.690743zM710.537034 386.38808a14.34715 14.34715 0 0 1-5.240798-27.690743l249.755635-98.255677 0.241597-0.111506a14.254228 14.254228 0 0 1 5.891252-1.263739 14.34715 14.34715 0 0 1 4.646098 27.876587h-0.223013l-249.792804 98.31143a14.51441 14.51441 0 0 1-5.277967 1.133648zM710.499865 585.780015a14.34715 14.34715 0 0 1-5.222214-27.709327l249.551207-98.218509a14.34715 14.34715 0 1 1 10.53735 26.687186l-249.551207 98.237093a14.365735 14.365735 0 0 1-5.277967 1.003557z" fill="#2382EA" p-id="2224"></path><path d="M1095.066675 655.136964v138.082027L576.227638 996.290635v-765.676923L1095.066675 27.616406v414.115992l28.657132-28.657132V34.176696A34.251033 34.251033 0 0 0 1089.565695 0h-2.676152L578.755115 198.852987l-1.300907 0.16726a34.083774 34.083774 0 0 0-10.871869 3.326606l-4.683267 2.323049-4.683266-2.323049a34.120943 34.120943 0 0 0-10.890454-3.326606l-1.300907-0.16726L36.834264 0h-2.657568A34.251033 34.251033 0 0 0 0 34.158111v756.775a34.306786 34.306786 0 0 0 29.902286 33.916514l1.300907 0.16726L539.393374 1023.999963h2.657568a33.879345 33.879345 0 0 0 15.146279-3.549619l4.683267-2.323049 4.683266 2.323049A33.860761 33.860761 0 0 0 581.691449 1023.999963h2.676152l508.171597-198.852988 1.282323-0.167259a34.306786 34.306786 0 0 0 29.865117-33.89793V626.479832zM547.533338 996.290635L28.6943 793.218991v-765.676923l518.839038 203.164566z" fill="#2382EA" p-id="2225"></path><path d="M813.773328 829.477139a11.782504 11.782504 0 0 1-2.843412-4.590345 11.485154 11.485154 0 0 1 0-7.935535l27.876587-79.819961 1.152232-3.289437 3.531035-3.531035 312.923981-312.923981 0.371688-0.371688 0.223013 0.223013a49.081378 49.081378 0 0 1 68.948092 68.966676l0.204428 0.204429-2.843412 2.899165-52.407984 52.482321-261.538139 261.482386-83.20232 29.010235a11.968348 11.968348 0 0 1-12.395789-2.806243z m26.018148-26.018148l48.319417-16.856043L856.740441 755.046651z m67.312665-26.965952L1132.737237 550.841359l-40.32813-40.328129-225.577342 225.558758z m239.905908-239.924492l26.129654-26.129654L1132.830159 470.185101l-26.129655 26.018148z m41.071505-41.034336l20.833103-20.851687a28.471288 28.471288 0 0 0-0.947804-39.138729l2.806243-2.936333-2.787659 2.899165a28.601378 28.601378 0 0 0-39.287403-1.059311L1147.790594 455.317588z" fill="#2382EA" p-id="2226"></path></svg>