<?xml version="1.0" standalone="no"?><!DOCTYPE svg PUBLIC "-//W3C//DTD SVG 1.1//EN" "http://www.w3.org/Graphics/SVG/1.1/DTD/svg11.dtd"><svg t="1528356517894" class="icon" style="" viewBox="0 0 1024 1024" version="1.1" xmlns="http://www.w3.org/2000/svg" p-id="3242" xmlns:xlink="http://www.w3.org/1999/xlink" width="200" height="200"><defs><style type="text/css"></style></defs><path d="M934.570667 411.306667h-269.653334C769.536 25.429333 593.066667 5.632 593.066667 5.632c-74.752 0-59.221333 59.221333-65.024 68.949333C528.042667 263.338667 327.68 411.306667 327.68 411.306667v535.210666c0 52.906667 72.021333 71.850667 100.181333 71.850667h405.162667c38.058667 0 69.12-100.010667 69.12-100.010667C1002.325333 577.536 1002.325333 476.16 1002.325333 476.16c0-70.485333-67.754667-64.853333-67.754666-64.853333z m0 0M216.917333 411.477333H55.466667c-33.28 0-33.792 32.768-33.792 32.768l33.28 539.818667c0 34.304 34.474667 34.304 34.474666 34.304h139.776c29.184 0 28.842667-22.698667 28.842667-22.698667V452.437333c0-41.472-41.130667-40.96-41.130667-40.96z m0 0" fill="#9B9B9B" p-id="3243"></path></svg>