<?xml version="1.0" standalone="no"?><!DOCTYPE svg PUBLIC "-//W3C//DTD SVG 1.1//EN" "http://www.w3.org/Graphics/SVG/1.1/DTD/svg11.dtd"><svg t="1527920718260" class="icon" style="" viewBox="0 0 1024 1024" version="1.1" xmlns="http://www.w3.org/2000/svg" p-id="2394" xmlns:xlink="http://www.w3.org/1999/xlink" width="200" height="200"><defs><style type="text/css"></style></defs><path d="M259.413333 66.56v49.493333h-63.146666c-46.08 5.12-83.626667 44.373333-87.04 90.453334v626.346666c0 20.48 3.413333 40.96 11.946666 58.026667 23.893333 49.493333 64.853333 73.386667 116.053334 73.386667h544.426666c58.026667 0 104.106667-32.426667 122.88-87.04 5.12-15.36 5.12-29.013333 5.12-44.373334V213.333333c0-46.08-25.6-83.626667-66.56-98.986666-11.946667-3.413333-23.893333-5.12-34.133333-5.12H762.88v-51.2c49.493333-3.413333 102.4-3.413333 143.36 32.426666 34.133333 25.6 52.906667 64.853333 54.613333 107.52v634.88c0 54.613333-20.48 102.4-61.44 136.533334-32.426667 29.013333-73.386667 44.373333-116.053333 44.373333H238.933333c-75.093333 0-131.413333-37.546667-163.84-104.106667-8.533333-17.066667-11.946667-40.96-11.946666-66.56V223.573333c0-58.026667 25.6-102.4 75.093333-134.826666 15.36-8.533333 32.426667-15.36 49.493333-17.066667 22.186667-1.706667 47.786667-5.12 71.68-5.12z" fill="#2382EA" p-id="2395"></path><path d="M372.053333 0H648.533333v46.08h-116.053333v46.08h93.866667v46.08H395.946667V93.866667h93.866666V46.08h-116.053333c-1.706667-17.066667-1.706667-30.72-1.706667-46.08zM273.066667 361.813333v-44.373333l3.413333-3.413333h471.04v46.08H273.066667z m0 158.72V477.866667h474.453333v44.373333H273.066667z m474.453333 114.346667v44.373333H273.066667v-44.373333h474.453333z" fill="#2382EA" p-id="2396"></path></svg>